<?xml version="1.0" encoding="utf-8" standalone="no"?>
<!DOCTYPE svg PUBLIC "-//W3C//DTD SVG 1.1//EN"
  "http://www.w3.org/Graphics/SVG/1.1/DTD/svg11.dtd">
<!-- Created with matplotlib (https://matplotlib.org/) -->
<svg height="396pt" version="1.1" viewBox="0 0 576 396" width="576pt" xmlns="http://www.w3.org/2000/svg" xmlns:xlink="http://www.w3.org/1999/xlink">
 <defs>
  <style type="text/css">
*{stroke-linecap:butt;stroke-linejoin:round;}
  </style>
 </defs>
 <g id="figure_1">
  <g id="patch_1">
   <path d="M 0 396 
L 576 396 
L 576 0 
L 0 0 
z
" style="fill:#f0f0f0;"/>
  </g>
  <g id="axes_1">
   <g id="patch_2">
    <path d="M 67.79 344.68 
L 560.88 344.68 
L 560.88 57.228 
L 67.79 57.228 
z
" style="fill:#f0f0f0;"/>
   </g>
   <g id="matplotlib.axis_1">
    <g id="xtick_1">
     <g id="line2d_1">
      <path clip-path="url(#p4655e228f0)" d="M 90.203182 344.68 
L 90.203182 57.228 
" style="fill:none;stroke:#cbcbcb;"/>
     </g>
     <g id="line2d_2"/>
     <g id="text_1">
      <!-- 0 -->
      <defs>
       <path d="M 4.15625 35.296875 
Q 4.15625 48 6.765625 55.734375 
Q 9.375 63.484375 14.515625 67.671875 
Q 19.671875 71.875 27.484375 71.875 
Q 33.25 71.875 37.59375 69.546875 
Q 41.9375 67.234375 44.765625 62.859375 
Q 47.609375 58.5 49.21875 52.21875 
Q 50.828125 45.953125 50.828125 35.296875 
Q 50.828125 22.703125 48.234375 14.96875 
Q 45.65625 7.234375 40.5 3 
Q 35.359375 -1.21875 27.484375 -1.21875 
Q 17.140625 -1.21875 11.234375 6.203125 
Q 4.15625 15.140625 4.15625 35.296875 
z
M 13.1875 35.296875 
Q 13.1875 17.671875 17.3125 11.828125 
Q 21.4375 6 27.484375 6 
Q 33.546875 6 37.671875 11.859375 
Q 41.796875 17.71875 41.796875 35.296875 
Q 41.796875 52.984375 37.671875 58.78125 
Q 33.546875 64.59375 27.390625 64.59375 
Q 21.34375 64.59375 17.71875 59.46875 
Q 13.1875 52.9375 13.1875 35.296875 
z
" id="ArialMT-48"/>
      </defs>
      <g style="fill:#262626;" transform="translate(87.422713 358.837812)scale(0.1 -0.1)">
       <use xlink:href="#ArialMT-48"/>
      </g>
     </g>
    </g>
    <g id="xtick_2">
     <g id="line2d_3">
      <path clip-path="url(#p4655e228f0)" d="M 163.579641 344.68 
L 163.579641 57.228 
" style="fill:none;stroke:#cbcbcb;"/>
     </g>
     <g id="line2d_4"/>
     <g id="text_2">
      <!-- 50 -->
      <defs>
       <path d="M 4.15625 18.75 
L 13.375 19.53125 
Q 14.40625 12.796875 18.140625 9.390625 
Q 21.875 6 27.15625 6 
Q 33.5 6 37.890625 10.78125 
Q 42.28125 15.578125 42.28125 23.484375 
Q 42.28125 31 38.0625 35.34375 
Q 33.84375 39.703125 27 39.703125 
Q 22.75 39.703125 19.328125 37.765625 
Q 15.921875 35.84375 13.96875 32.765625 
L 5.71875 33.84375 
L 12.640625 70.609375 
L 48.25 70.609375 
L 48.25 62.203125 
L 19.671875 62.203125 
L 15.828125 42.96875 
Q 22.265625 47.46875 29.34375 47.46875 
Q 38.71875 47.46875 45.15625 40.96875 
Q 51.609375 34.46875 51.609375 24.265625 
Q 51.609375 14.546875 45.953125 7.46875 
Q 39.0625 -1.21875 27.15625 -1.21875 
Q 17.390625 -1.21875 11.203125 4.25 
Q 5.03125 9.71875 4.15625 18.75 
z
" id="ArialMT-53"/>
      </defs>
      <g style="fill:#262626;" transform="translate(158.018703 358.837812)scale(0.1 -0.1)">
       <use xlink:href="#ArialMT-53"/>
       <use x="55.615234" xlink:href="#ArialMT-48"/>
      </g>
     </g>
    </g>
    <g id="xtick_3">
     <g id="line2d_5">
      <path clip-path="url(#p4655e228f0)" d="M 236.9561 344.68 
L 236.9561 57.228 
" style="fill:none;stroke:#cbcbcb;"/>
     </g>
     <g id="line2d_6"/>
     <g id="text_3">
      <!-- 100 -->
      <defs>
       <path d="M 37.25 0 
L 28.46875 0 
L 28.46875 56 
Q 25.296875 52.984375 20.140625 49.953125 
Q 14.984375 46.921875 10.890625 45.40625 
L 10.890625 53.90625 
Q 18.265625 57.375 23.78125 62.296875 
Q 29.296875 67.234375 31.59375 71.875 
L 37.25 71.875 
z
" id="ArialMT-49"/>
      </defs>
      <g style="fill:#262626;" transform="translate(228.614693 358.837812)scale(0.1 -0.1)">
       <use xlink:href="#ArialMT-49"/>
       <use x="55.615234" xlink:href="#ArialMT-48"/>
       <use x="111.230469" xlink:href="#ArialMT-48"/>
      </g>
     </g>
    </g>
    <g id="xtick_4">
     <g id="line2d_7">
      <path clip-path="url(#p4655e228f0)" d="M 310.332558 344.68 
L 310.332558 57.228 
" style="fill:none;stroke:#cbcbcb;"/>
     </g>
     <g id="line2d_8"/>
     <g id="text_4">
      <!-- 150 -->
      <g style="fill:#262626;" transform="translate(301.991152 358.837812)scale(0.1 -0.1)">
       <use xlink:href="#ArialMT-49"/>
       <use x="55.615234" xlink:href="#ArialMT-53"/>
       <use x="111.230469" xlink:href="#ArialMT-48"/>
      </g>
     </g>
    </g>
    <g id="xtick_5">
     <g id="line2d_9">
      <path clip-path="url(#p4655e228f0)" d="M 383.709017 344.68 
L 383.709017 57.228 
" style="fill:none;stroke:#cbcbcb;"/>
     </g>
     <g id="line2d_10"/>
     <g id="text_5">
      <!-- 200 -->
      <defs>
       <path d="M 50.34375 8.453125 
L 50.34375 0 
L 3.03125 0 
Q 2.9375 3.171875 4.046875 6.109375 
Q 5.859375 10.9375 9.828125 15.625 
Q 13.8125 20.3125 21.34375 26.46875 
Q 33.015625 36.03125 37.109375 41.625 
Q 41.21875 47.21875 41.21875 52.203125 
Q 41.21875 57.421875 37.46875 61 
Q 33.734375 64.59375 27.734375 64.59375 
Q 21.390625 64.59375 17.578125 60.78125 
Q 13.765625 56.984375 13.71875 50.25 
L 4.6875 51.171875 
Q 5.609375 61.28125 11.65625 66.578125 
Q 17.71875 71.875 27.9375 71.875 
Q 38.234375 71.875 44.234375 66.15625 
Q 50.25 60.453125 50.25 52 
Q 50.25 47.703125 48.484375 43.546875 
Q 46.734375 39.40625 42.65625 34.8125 
Q 38.578125 30.21875 29.109375 22.21875 
Q 21.1875 15.578125 18.9375 13.203125 
Q 16.703125 10.84375 15.234375 8.453125 
z
" id="ArialMT-50"/>
      </defs>
      <g style="fill:#262626;" transform="translate(375.367611 358.837812)scale(0.1 -0.1)">
       <use xlink:href="#ArialMT-50"/>
       <use x="55.615234" xlink:href="#ArialMT-48"/>
       <use x="111.230469" xlink:href="#ArialMT-48"/>
      </g>
     </g>
    </g>
    <g id="xtick_6">
     <g id="line2d_11">
      <path clip-path="url(#p4655e228f0)" d="M 457.085476 344.68 
L 457.085476 57.228 
" style="fill:none;stroke:#cbcbcb;"/>
     </g>
     <g id="line2d_12"/>
     <g id="text_6">
      <!-- 250 -->
      <g style="fill:#262626;" transform="translate(448.74407 358.837812)scale(0.1 -0.1)">
       <use xlink:href="#ArialMT-50"/>
       <use x="55.615234" xlink:href="#ArialMT-53"/>
       <use x="111.230469" xlink:href="#ArialMT-48"/>
      </g>
     </g>
    </g>
    <g id="xtick_7">
     <g id="line2d_13">
      <path clip-path="url(#p4655e228f0)" d="M 530.461935 344.68 
L 530.461935 57.228 
" style="fill:none;stroke:#cbcbcb;"/>
     </g>
     <g id="line2d_14"/>
     <g id="text_7">
      <!-- 300 -->
      <defs>
       <path d="M 4.203125 18.890625 
L 12.984375 20.0625 
Q 14.5 12.59375 18.140625 9.296875 
Q 21.78125 6 27 6 
Q 33.203125 6 37.46875 10.296875 
Q 41.75 14.59375 41.75 20.953125 
Q 41.75 27 37.796875 30.921875 
Q 33.84375 34.859375 27.734375 34.859375 
Q 25.25 34.859375 21.53125 33.890625 
L 22.515625 41.609375 
Q 23.390625 41.5 23.921875 41.5 
Q 29.546875 41.5 34.03125 44.421875 
Q 38.53125 47.359375 38.53125 53.46875 
Q 38.53125 58.296875 35.25 61.46875 
Q 31.984375 64.65625 26.8125 64.65625 
Q 21.6875 64.65625 18.265625 61.421875 
Q 14.84375 58.203125 13.875 51.765625 
L 5.078125 53.328125 
Q 6.6875 62.15625 12.390625 67.015625 
Q 18.109375 71.875 26.609375 71.875 
Q 32.46875 71.875 37.390625 69.359375 
Q 42.328125 66.84375 44.9375 62.5 
Q 47.5625 58.15625 47.5625 53.265625 
Q 47.5625 48.640625 45.0625 44.828125 
Q 42.578125 41.015625 37.703125 38.765625 
Q 44.046875 37.3125 47.5625 32.6875 
Q 51.078125 28.078125 51.078125 21.140625 
Q 51.078125 11.765625 44.234375 5.25 
Q 37.40625 -1.265625 26.953125 -1.265625 
Q 17.53125 -1.265625 11.296875 4.34375 
Q 5.078125 9.96875 4.203125 18.890625 
z
" id="ArialMT-51"/>
      </defs>
      <g style="fill:#262626;" transform="translate(522.120529 358.837812)scale(0.1 -0.1)">
       <use xlink:href="#ArialMT-51"/>
       <use x="55.615234" xlink:href="#ArialMT-48"/>
       <use x="111.230469" xlink:href="#ArialMT-48"/>
      </g>
     </g>
    </g>
    <g id="text_8">
     <!-- Wind Speed Squared [m/s] -->
     <defs>
      <path d="M 20.21875 0 
L 1.21875 71.578125 
L 10.9375 71.578125 
L 21.828125 24.65625 
Q 23.578125 17.28125 24.859375 10.015625 
Q 27.59375 21.484375 28.078125 23.25 
L 41.703125 71.578125 
L 53.125 71.578125 
L 63.375 35.359375 
Q 67.234375 21.875 68.953125 10.015625 
Q 70.3125 16.796875 72.515625 25.59375 
L 83.734375 71.578125 
L 93.265625 71.578125 
L 73.640625 0 
L 64.5 0 
L 49.421875 54.546875 
Q 47.515625 61.375 47.171875 62.9375 
Q 46.046875 58.015625 45.0625 54.546875 
L 29.890625 0 
z
" id="ArialMT-87"/>
      <path d="M 6.640625 61.46875 
L 6.640625 71.578125 
L 15.4375 71.578125 
L 15.4375 61.46875 
z
M 6.640625 0 
L 6.640625 51.859375 
L 15.4375 51.859375 
L 15.4375 0 
z
" id="ArialMT-105"/>
      <path d="M 6.59375 0 
L 6.59375 51.859375 
L 14.5 51.859375 
L 14.5 44.484375 
Q 20.21875 53.03125 31 53.03125 
Q 35.6875 53.03125 39.625 51.34375 
Q 43.5625 49.65625 45.515625 46.921875 
Q 47.46875 44.1875 48.25 40.4375 
Q 48.734375 37.984375 48.734375 31.890625 
L 48.734375 0 
L 39.9375 0 
L 39.9375 31.546875 
Q 39.9375 36.921875 38.90625 39.578125 
Q 37.890625 42.234375 35.28125 43.8125 
Q 32.671875 45.40625 29.15625 45.40625 
Q 23.53125 45.40625 19.453125 41.84375 
Q 15.375 38.28125 15.375 28.328125 
L 15.375 0 
z
" id="ArialMT-110"/>
      <path d="M 40.234375 0 
L 40.234375 6.546875 
Q 35.296875 -1.171875 25.734375 -1.171875 
Q 19.53125 -1.171875 14.328125 2.25 
Q 9.125 5.671875 6.265625 11.796875 
Q 3.421875 17.921875 3.421875 25.875 
Q 3.421875 33.640625 6 39.96875 
Q 8.59375 46.296875 13.765625 49.65625 
Q 18.953125 53.03125 25.34375 53.03125 
Q 30.03125 53.03125 33.6875 51.046875 
Q 37.359375 49.078125 39.65625 45.90625 
L 39.65625 71.578125 
L 48.390625 71.578125 
L 48.390625 0 
z
M 12.453125 25.875 
Q 12.453125 15.921875 16.640625 10.984375 
Q 20.84375 6.0625 26.5625 6.0625 
Q 32.328125 6.0625 36.34375 10.765625 
Q 40.375 15.484375 40.375 25.140625 
Q 40.375 35.796875 36.265625 40.765625 
Q 32.171875 45.75 26.171875 45.75 
Q 20.3125 45.75 16.375 40.96875 
Q 12.453125 36.1875 12.453125 25.875 
z
" id="ArialMT-100"/>
      <path id="ArialMT-32"/>
      <path d="M 4.5 23 
L 13.421875 23.78125 
Q 14.0625 18.40625 16.375 14.96875 
Q 18.703125 11.53125 23.578125 9.40625 
Q 28.46875 7.28125 34.578125 7.28125 
Q 39.984375 7.28125 44.140625 8.890625 
Q 48.296875 10.5 50.3125 13.296875 
Q 52.34375 16.109375 52.34375 19.4375 
Q 52.34375 22.796875 50.390625 25.3125 
Q 48.4375 27.828125 43.953125 29.546875 
Q 41.0625 30.671875 31.203125 33.03125 
Q 21.34375 35.40625 17.390625 37.5 
Q 12.25 40.1875 9.734375 44.15625 
Q 7.234375 48.140625 7.234375 53.078125 
Q 7.234375 58.5 10.296875 63.203125 
Q 13.375 67.921875 19.28125 70.359375 
Q 25.203125 72.796875 32.421875 72.796875 
Q 40.375 72.796875 46.453125 70.234375 
Q 52.546875 67.671875 55.8125 62.6875 
Q 59.078125 57.71875 59.328125 51.421875 
L 50.25 50.734375 
Q 49.515625 57.515625 45.28125 60.984375 
Q 41.0625 64.453125 32.8125 64.453125 
Q 24.21875 64.453125 20.28125 61.296875 
Q 16.359375 58.15625 16.359375 53.71875 
Q 16.359375 49.859375 19.140625 47.359375 
Q 21.875 44.875 33.421875 42.265625 
Q 44.96875 39.65625 49.265625 37.703125 
Q 55.515625 34.8125 58.484375 30.390625 
Q 61.46875 25.984375 61.46875 20.21875 
Q 61.46875 14.5 58.203125 9.4375 
Q 54.9375 4.390625 48.796875 1.578125 
Q 42.671875 -1.21875 35.015625 -1.21875 
Q 25.296875 -1.21875 18.71875 1.609375 
Q 12.15625 4.4375 8.421875 10.125 
Q 4.6875 15.828125 4.5 23 
z
" id="ArialMT-83"/>
      <path d="M 6.59375 -19.875 
L 6.59375 51.859375 
L 14.59375 51.859375 
L 14.59375 45.125 
Q 17.4375 49.078125 21 51.046875 
Q 24.5625 53.03125 29.640625 53.03125 
Q 36.28125 53.03125 41.359375 49.609375 
Q 46.4375 46.1875 49.015625 39.953125 
Q 51.609375 33.734375 51.609375 26.3125 
Q 51.609375 18.359375 48.75 11.984375 
Q 45.90625 5.609375 40.453125 2.21875 
Q 35.015625 -1.171875 29 -1.171875 
Q 24.609375 -1.171875 21.109375 0.6875 
Q 17.625 2.546875 15.375 5.375 
L 15.375 -19.875 
z
M 14.546875 25.640625 
Q 14.546875 15.625 18.59375 10.84375 
Q 22.65625 6.0625 28.421875 6.0625 
Q 34.28125 6.0625 38.453125 11.015625 
Q 42.625 15.96875 42.625 26.375 
Q 42.625 36.28125 38.546875 41.203125 
Q 34.46875 46.140625 28.8125 46.140625 
Q 23.1875 46.140625 18.859375 40.890625 
Q 14.546875 35.640625 14.546875 25.640625 
z
" id="ArialMT-112"/>
      <path d="M 42.09375 16.703125 
L 51.171875 15.578125 
Q 49.03125 7.625 43.21875 3.21875 
Q 37.40625 -1.171875 28.375 -1.171875 
Q 17 -1.171875 10.328125 5.828125 
Q 3.65625 12.84375 3.65625 25.484375 
Q 3.65625 38.578125 10.390625 45.796875 
Q 17.140625 53.03125 27.875 53.03125 
Q 38.28125 53.03125 44.875 45.953125 
Q 51.46875 38.875 51.46875 26.03125 
Q 51.46875 25.25 51.421875 23.6875 
L 12.75 23.6875 
Q 13.234375 15.140625 17.578125 10.59375 
Q 21.921875 6.0625 28.421875 6.0625 
Q 33.25 6.0625 36.671875 8.59375 
Q 40.09375 11.140625 42.09375 16.703125 
z
M 13.234375 30.90625 
L 42.1875 30.90625 
Q 41.609375 37.453125 38.875 40.71875 
Q 34.671875 45.796875 27.984375 45.796875 
Q 21.921875 45.796875 17.796875 41.75 
Q 13.671875 37.703125 13.234375 30.90625 
z
" id="ArialMT-101"/>
      <path d="M 39.65625 -19.875 
L 39.65625 5.515625 
Q 37.59375 2.640625 33.90625 0.734375 
Q 30.21875 -1.171875 26.078125 -1.171875 
Q 16.84375 -1.171875 10.171875 6.203125 
Q 3.515625 13.578125 3.515625 26.421875 
Q 3.515625 34.234375 6.21875 40.421875 
Q 8.9375 46.625 14.078125 49.828125 
Q 19.234375 53.03125 25.390625 53.03125 
Q 35.015625 53.03125 40.53125 44.921875 
L 40.53125 51.859375 
L 48.4375 51.859375 
L 48.4375 -19.875 
z
M 12.546875 26.078125 
Q 12.546875 16.0625 16.75 11.0625 
Q 20.953125 6.0625 26.8125 6.0625 
Q 32.421875 6.0625 36.46875 10.8125 
Q 40.53125 15.578125 40.53125 25.296875 
Q 40.53125 35.640625 36.25 40.859375 
Q 31.984375 46.09375 26.21875 46.09375 
Q 20.515625 46.09375 16.53125 41.234375 
Q 12.546875 36.375 12.546875 26.078125 
z
" id="ArialMT-113"/>
      <path d="M 40.578125 0 
L 40.578125 7.625 
Q 34.515625 -1.171875 24.125 -1.171875 
Q 19.53125 -1.171875 15.546875 0.578125 
Q 11.578125 2.34375 9.640625 5 
Q 7.71875 7.671875 6.9375 11.53125 
Q 6.390625 14.109375 6.390625 19.734375 
L 6.390625 51.859375 
L 15.1875 51.859375 
L 15.1875 23.09375 
Q 15.1875 16.21875 15.71875 13.8125 
Q 16.546875 10.359375 19.234375 8.375 
Q 21.921875 6.390625 25.875 6.390625 
Q 29.828125 6.390625 33.296875 8.421875 
Q 36.765625 10.453125 38.203125 13.9375 
Q 39.65625 17.4375 39.65625 24.078125 
L 39.65625 51.859375 
L 48.4375 51.859375 
L 48.4375 0 
z
" id="ArialMT-117"/>
      <path d="M 40.4375 6.390625 
Q 35.546875 2.25 31.03125 0.53125 
Q 26.515625 -1.171875 21.34375 -1.171875 
Q 12.796875 -1.171875 8.203125 3 
Q 3.609375 7.171875 3.609375 13.671875 
Q 3.609375 17.484375 5.34375 20.625 
Q 7.078125 23.78125 9.890625 25.6875 
Q 12.703125 27.59375 16.21875 28.5625 
Q 18.796875 29.25 24.03125 29.890625 
Q 34.671875 31.15625 39.703125 32.90625 
Q 39.75 34.71875 39.75 35.203125 
Q 39.75 40.578125 37.25 42.78125 
Q 33.890625 45.75 27.25 45.75 
Q 21.046875 45.75 18.09375 43.578125 
Q 15.140625 41.40625 13.71875 35.890625 
L 5.125 37.0625 
Q 6.296875 42.578125 8.984375 45.96875 
Q 11.671875 49.359375 16.75 51.1875 
Q 21.828125 53.03125 28.515625 53.03125 
Q 35.15625 53.03125 39.296875 51.46875 
Q 43.453125 49.90625 45.40625 47.53125 
Q 47.359375 45.171875 48.140625 41.546875 
Q 48.578125 39.3125 48.578125 33.453125 
L 48.578125 21.734375 
Q 48.578125 9.46875 49.140625 6.21875 
Q 49.703125 2.984375 51.375 0 
L 42.1875 0 
Q 40.828125 2.734375 40.4375 6.390625 
z
M 39.703125 26.03125 
Q 34.90625 24.078125 25.34375 22.703125 
Q 19.921875 21.921875 17.671875 20.9375 
Q 15.4375 19.96875 14.203125 18.09375 
Q 12.984375 16.21875 12.984375 13.921875 
Q 12.984375 10.40625 15.640625 8.0625 
Q 18.3125 5.71875 23.4375 5.71875 
Q 28.515625 5.71875 32.46875 7.9375 
Q 36.421875 10.15625 38.28125 14.015625 
Q 39.703125 17 39.703125 22.796875 
z
" id="ArialMT-97"/>
      <path d="M 6.5 0 
L 6.5 51.859375 
L 14.40625 51.859375 
L 14.40625 44 
Q 17.4375 49.515625 20 51.265625 
Q 22.5625 53.03125 25.640625 53.03125 
Q 30.078125 53.03125 34.671875 50.203125 
L 31.640625 42.046875 
Q 28.421875 43.953125 25.203125 43.953125 
Q 22.3125 43.953125 20.015625 42.21875 
Q 17.71875 40.484375 16.75 37.40625 
Q 15.28125 32.71875 15.28125 27.15625 
L 15.28125 0 
z
" id="ArialMT-114"/>
      <path d="M 6.78125 -19.875 
L 6.78125 71.578125 
L 26.171875 71.578125 
L 26.171875 64.3125 
L 15.578125 64.3125 
L 15.578125 -12.59375 
L 26.171875 -12.59375 
L 26.171875 -19.875 
z
" id="ArialMT-91"/>
      <path d="M 6.59375 0 
L 6.59375 51.859375 
L 14.453125 51.859375 
L 14.453125 44.578125 
Q 16.890625 48.390625 20.9375 50.703125 
Q 25 53.03125 30.171875 53.03125 
Q 35.9375 53.03125 39.625 50.640625 
Q 43.3125 48.25 44.828125 43.953125 
Q 50.984375 53.03125 60.84375 53.03125 
Q 68.5625 53.03125 72.703125 48.75 
Q 76.859375 44.484375 76.859375 35.59375 
L 76.859375 0 
L 68.109375 0 
L 68.109375 32.671875 
Q 68.109375 37.9375 67.25 40.25 
Q 66.40625 42.578125 64.15625 43.984375 
Q 61.921875 45.40625 58.890625 45.40625 
Q 53.421875 45.40625 49.796875 41.765625 
Q 46.1875 38.140625 46.1875 30.125 
L 46.1875 0 
L 37.40625 0 
L 37.40625 33.6875 
Q 37.40625 39.546875 35.25 42.46875 
Q 33.109375 45.40625 28.21875 45.40625 
Q 24.515625 45.40625 21.359375 43.453125 
Q 18.21875 41.5 16.796875 37.734375 
Q 15.375 33.984375 15.375 26.90625 
L 15.375 0 
z
" id="ArialMT-109"/>
      <path d="M 0 -1.21875 
L 20.75 72.796875 
L 27.78125 72.796875 
L 7.078125 -1.21875 
z
" id="ArialMT-47"/>
      <path d="M 3.078125 15.484375 
L 11.765625 16.84375 
Q 12.5 11.625 15.84375 8.84375 
Q 19.1875 6.0625 25.203125 6.0625 
Q 31.25 6.0625 34.171875 8.515625 
Q 37.109375 10.984375 37.109375 14.3125 
Q 37.109375 17.28125 34.515625 19 
Q 32.71875 20.171875 25.53125 21.96875 
Q 15.875 24.421875 12.140625 26.203125 
Q 8.40625 27.984375 6.46875 31.125 
Q 4.546875 34.28125 4.546875 38.09375 
Q 4.546875 41.546875 6.125 44.5 
Q 7.71875 47.46875 10.453125 49.421875 
Q 12.5 50.921875 16.03125 51.96875 
Q 19.578125 53.03125 23.640625 53.03125 
Q 29.734375 53.03125 34.34375 51.265625 
Q 38.96875 49.515625 41.15625 46.5 
Q 43.359375 43.5 44.1875 38.484375 
L 35.59375 37.3125 
Q 35.015625 41.3125 32.203125 43.546875 
Q 29.390625 45.796875 24.265625 45.796875 
Q 18.21875 45.796875 15.625 43.796875 
Q 13.03125 41.796875 13.03125 39.109375 
Q 13.03125 37.40625 14.109375 36.03125 
Q 15.1875 34.625 17.484375 33.6875 
Q 18.796875 33.203125 25.25 31.453125 
Q 34.578125 28.953125 38.25 27.359375 
Q 41.9375 25.78125 44.03125 22.75 
Q 46.140625 19.734375 46.140625 15.234375 
Q 46.140625 10.84375 43.578125 6.953125 
Q 41.015625 3.078125 36.171875 0.953125 
Q 31.34375 -1.171875 25.25 -1.171875 
Q 15.140625 -1.171875 9.84375 3.03125 
Q 4.546875 7.234375 3.078125 15.484375 
z
" id="ArialMT-115"/>
      <path d="M 21.296875 -19.875 
L 1.90625 -19.875 
L 1.90625 -12.59375 
L 12.5 -12.59375 
L 12.5 64.3125 
L 1.90625 64.3125 
L 1.90625 71.578125 
L 21.296875 71.578125 
z
" id="ArialMT-93"/>
     </defs>
     <g style="fill:#262626;" transform="translate(213.955 377.055187)scale(0.168 -0.168)">
      <use xlink:href="#ArialMT-87"/>
      <use x="94.384766" xlink:href="#ArialMT-105"/>
      <use x="116.601562" xlink:href="#ArialMT-110"/>
      <use x="172.216797" xlink:href="#ArialMT-100"/>
      <use x="227.832031" xlink:href="#ArialMT-32"/>
      <use x="255.615234" xlink:href="#ArialMT-83"/>
      <use x="322.314453" xlink:href="#ArialMT-112"/>
      <use x="377.929688" xlink:href="#ArialMT-101"/>
      <use x="433.544922" xlink:href="#ArialMT-101"/>
      <use x="489.160156" xlink:href="#ArialMT-100"/>
      <use x="544.775391" xlink:href="#ArialMT-32"/>
      <use x="572.558594" xlink:href="#ArialMT-83"/>
      <use x="639.257812" xlink:href="#ArialMT-113"/>
      <use x="694.873047" xlink:href="#ArialMT-117"/>
      <use x="750.488281" xlink:href="#ArialMT-97"/>
      <use x="806.103516" xlink:href="#ArialMT-114"/>
      <use x="839.404297" xlink:href="#ArialMT-101"/>
      <use x="895.019531" xlink:href="#ArialMT-100"/>
      <use x="950.634766" xlink:href="#ArialMT-32"/>
      <use x="978.417969" xlink:href="#ArialMT-91"/>
      <use x="1006.201172" xlink:href="#ArialMT-109"/>
      <use x="1089.501953" xlink:href="#ArialMT-47"/>
      <use x="1117.285156" xlink:href="#ArialMT-115"/>
      <use x="1167.285156" xlink:href="#ArialMT-93"/>
     </g>
    </g>
   </g>
   <g id="matplotlib.axis_2">
    <g id="ytick_1">
     <g id="line2d_15">
      <path clip-path="url(#p4655e228f0)" d="M 67.79 344.68 
L 560.88 344.68 
" style="fill:none;stroke:#cbcbcb;"/>
     </g>
     <g id="line2d_16"/>
     <g id="text_9">
      <!-- 0.000 -->
      <defs>
       <path d="M 9.078125 0 
L 9.078125 10.015625 
L 19.09375 10.015625 
L 19.09375 0 
z
" id="ArialMT-46"/>
      </defs>
      <g style="fill:#262626;" transform="translate(35.768125 348.258906)scale(0.1 -0.1)">
       <use xlink:href="#ArialMT-48"/>
       <use x="55.615234" xlink:href="#ArialMT-46"/>
       <use x="83.398438" xlink:href="#ArialMT-48"/>
       <use x="139.013672" xlink:href="#ArialMT-48"/>
       <use x="194.628906" xlink:href="#ArialMT-48"/>
      </g>
     </g>
    </g>
    <g id="ytick_2">
     <g id="line2d_17">
      <path clip-path="url(#p4655e228f0)" d="M 67.79 309.407391 
L 560.88 309.407391 
" style="fill:none;stroke:#cbcbcb;"/>
     </g>
     <g id="line2d_18"/>
     <g id="text_10">
      <!-- 0.002 -->
      <g style="fill:#262626;" transform="translate(35.768125 312.986298)scale(0.1 -0.1)">
       <use xlink:href="#ArialMT-48"/>
       <use x="55.615234" xlink:href="#ArialMT-46"/>
       <use x="83.398438" xlink:href="#ArialMT-48"/>
       <use x="139.013672" xlink:href="#ArialMT-48"/>
       <use x="194.628906" xlink:href="#ArialMT-50"/>
      </g>
     </g>
    </g>
    <g id="ytick_3">
     <g id="line2d_19">
      <path clip-path="url(#p4655e228f0)" d="M 67.79 274.134783 
L 560.88 274.134783 
" style="fill:none;stroke:#cbcbcb;"/>
     </g>
     <g id="line2d_20"/>
     <g id="text_11">
      <!-- 0.004 -->
      <defs>
       <path d="M 32.328125 0 
L 32.328125 17.140625 
L 1.265625 17.140625 
L 1.265625 25.203125 
L 33.9375 71.578125 
L 41.109375 71.578125 
L 41.109375 25.203125 
L 50.78125 25.203125 
L 50.78125 17.140625 
L 41.109375 17.140625 
L 41.109375 0 
z
M 32.328125 25.203125 
L 32.328125 57.46875 
L 9.90625 25.203125 
z
" id="ArialMT-52"/>
      </defs>
      <g style="fill:#262626;" transform="translate(35.768125 277.713689)scale(0.1 -0.1)">
       <use xlink:href="#ArialMT-48"/>
       <use x="55.615234" xlink:href="#ArialMT-46"/>
       <use x="83.398438" xlink:href="#ArialMT-48"/>
       <use x="139.013672" xlink:href="#ArialMT-48"/>
       <use x="194.628906" xlink:href="#ArialMT-52"/>
      </g>
     </g>
    </g>
    <g id="ytick_4">
     <g id="line2d_21">
      <path clip-path="url(#p4655e228f0)" d="M 67.79 238.862174 
L 560.88 238.862174 
" style="fill:none;stroke:#cbcbcb;"/>
     </g>
     <g id="line2d_22"/>
     <g id="text_12">
      <!-- 0.006 -->
      <defs>
       <path d="M 49.75 54.046875 
L 41.015625 53.375 
Q 39.84375 58.546875 37.703125 60.890625 
Q 34.125 64.65625 28.90625 64.65625 
Q 24.703125 64.65625 21.53125 62.3125 
Q 17.390625 59.28125 14.984375 53.46875 
Q 12.59375 47.65625 12.5 36.921875 
Q 15.671875 41.75 20.265625 44.09375 
Q 24.859375 46.4375 29.890625 46.4375 
Q 38.671875 46.4375 44.84375 39.96875 
Q 51.03125 33.5 51.03125 23.25 
Q 51.03125 16.5 48.125 10.71875 
Q 45.21875 4.9375 40.140625 1.859375 
Q 35.0625 -1.21875 28.609375 -1.21875 
Q 17.625 -1.21875 10.6875 6.859375 
Q 3.765625 14.9375 3.765625 33.5 
Q 3.765625 54.25 11.421875 63.671875 
Q 18.109375 71.875 29.4375 71.875 
Q 37.890625 71.875 43.28125 67.140625 
Q 48.6875 62.40625 49.75 54.046875 
z
M 13.875 23.1875 
Q 13.875 18.65625 15.796875 14.5 
Q 17.71875 10.359375 21.1875 8.171875 
Q 24.65625 6 28.46875 6 
Q 34.03125 6 38.03125 10.484375 
Q 42.046875 14.984375 42.046875 22.703125 
Q 42.046875 30.125 38.078125 34.390625 
Q 34.125 38.671875 28.125 38.671875 
Q 22.171875 38.671875 18.015625 34.390625 
Q 13.875 30.125 13.875 23.1875 
z
" id="ArialMT-54"/>
      </defs>
      <g style="fill:#262626;" transform="translate(35.768125 242.441081)scale(0.1 -0.1)">
       <use xlink:href="#ArialMT-48"/>
       <use x="55.615234" xlink:href="#ArialMT-46"/>
       <use x="83.398438" xlink:href="#ArialMT-48"/>
       <use x="139.013672" xlink:href="#ArialMT-48"/>
       <use x="194.628906" xlink:href="#ArialMT-54"/>
      </g>
     </g>
    </g>
    <g id="ytick_5">
     <g id="line2d_23">
      <path clip-path="url(#p4655e228f0)" d="M 67.79 203.589566 
L 560.88 203.589566 
" style="fill:none;stroke:#cbcbcb;"/>
     </g>
     <g id="line2d_24"/>
     <g id="text_13">
      <!-- 0.008 -->
      <defs>
       <path d="M 17.671875 38.8125 
Q 12.203125 40.828125 9.5625 44.53125 
Q 6.9375 48.25 6.9375 53.421875 
Q 6.9375 61.234375 12.546875 66.546875 
Q 18.171875 71.875 27.484375 71.875 
Q 36.859375 71.875 42.578125 66.421875 
Q 48.296875 60.984375 48.296875 53.171875 
Q 48.296875 48.1875 45.671875 44.5 
Q 43.0625 40.828125 37.75 38.8125 
Q 44.34375 36.671875 47.78125 31.875 
Q 51.21875 27.09375 51.21875 20.453125 
Q 51.21875 11.28125 44.71875 5.03125 
Q 38.234375 -1.21875 27.640625 -1.21875 
Q 17.046875 -1.21875 10.546875 5.046875 
Q 4.046875 11.328125 4.046875 20.703125 
Q 4.046875 27.6875 7.59375 32.390625 
Q 11.140625 37.109375 17.671875 38.8125 
z
M 15.921875 53.71875 
Q 15.921875 48.640625 19.1875 45.40625 
Q 22.46875 42.1875 27.6875 42.1875 
Q 32.765625 42.1875 36.015625 45.375 
Q 39.265625 48.578125 39.265625 53.21875 
Q 39.265625 58.0625 35.90625 61.359375 
Q 32.5625 64.65625 27.59375 64.65625 
Q 22.5625 64.65625 19.234375 61.421875 
Q 15.921875 58.203125 15.921875 53.71875 
z
M 13.09375 20.65625 
Q 13.09375 16.890625 14.875 13.375 
Q 16.65625 9.859375 20.171875 7.921875 
Q 23.6875 6 27.734375 6 
Q 34.03125 6 38.125 10.046875 
Q 42.234375 14.109375 42.234375 20.359375 
Q 42.234375 26.703125 38.015625 30.859375 
Q 33.796875 35.015625 27.4375 35.015625 
Q 21.234375 35.015625 17.15625 30.90625 
Q 13.09375 26.8125 13.09375 20.65625 
z
" id="ArialMT-56"/>
      </defs>
      <g style="fill:#262626;" transform="translate(35.768125 207.168472)scale(0.1 -0.1)">
       <use xlink:href="#ArialMT-48"/>
       <use x="55.615234" xlink:href="#ArialMT-46"/>
       <use x="83.398438" xlink:href="#ArialMT-48"/>
       <use x="139.013672" xlink:href="#ArialMT-48"/>
       <use x="194.628906" xlink:href="#ArialMT-56"/>
      </g>
     </g>
    </g>
    <g id="ytick_6">
     <g id="line2d_25">
      <path clip-path="url(#p4655e228f0)" d="M 67.79 168.316957 
L 560.88 168.316957 
" style="fill:none;stroke:#cbcbcb;"/>
     </g>
     <g id="line2d_26"/>
     <g id="text_14">
      <!-- 0.010 -->
      <g style="fill:#262626;" transform="translate(35.768125 171.895863)scale(0.1 -0.1)">
       <use xlink:href="#ArialMT-48"/>
       <use x="55.615234" xlink:href="#ArialMT-46"/>
       <use x="83.398438" xlink:href="#ArialMT-48"/>
       <use x="139.013672" xlink:href="#ArialMT-49"/>
       <use x="194.628906" xlink:href="#ArialMT-48"/>
      </g>
     </g>
    </g>
    <g id="ytick_7">
     <g id="line2d_27">
      <path clip-path="url(#p4655e228f0)" d="M 67.79 133.044349 
L 560.88 133.044349 
" style="fill:none;stroke:#cbcbcb;"/>
     </g>
     <g id="line2d_28"/>
     <g id="text_15">
      <!-- 0.012 -->
      <g style="fill:#262626;" transform="translate(35.768125 136.623255)scale(0.1 -0.1)">
       <use xlink:href="#ArialMT-48"/>
       <use x="55.615234" xlink:href="#ArialMT-46"/>
       <use x="83.398438" xlink:href="#ArialMT-48"/>
       <use x="139.013672" xlink:href="#ArialMT-49"/>
       <use x="194.628906" xlink:href="#ArialMT-50"/>
      </g>
     </g>
    </g>
    <g id="ytick_8">
     <g id="line2d_29">
      <path clip-path="url(#p4655e228f0)" d="M 67.79 97.77174 
L 560.88 97.77174 
" style="fill:none;stroke:#cbcbcb;"/>
     </g>
     <g id="line2d_30"/>
     <g id="text_16">
      <!-- 0.014 -->
      <g style="fill:#262626;" transform="translate(35.768125 101.350646)scale(0.1 -0.1)">
       <use xlink:href="#ArialMT-48"/>
       <use x="55.615234" xlink:href="#ArialMT-46"/>
       <use x="83.398438" xlink:href="#ArialMT-48"/>
       <use x="139.013672" xlink:href="#ArialMT-49"/>
       <use x="194.628906" xlink:href="#ArialMT-52"/>
      </g>
     </g>
    </g>
    <g id="ytick_9">
     <g id="line2d_31">
      <path clip-path="url(#p4655e228f0)" d="M 67.79 62.499131 
L 560.88 62.499131 
" style="fill:none;stroke:#cbcbcb;"/>
     </g>
     <g id="line2d_32"/>
     <g id="text_17">
      <!-- 0.016 -->
      <g style="fill:#262626;" transform="translate(35.768125 66.078038)scale(0.1 -0.1)">
       <use xlink:href="#ArialMT-48"/>
       <use x="55.615234" xlink:href="#ArialMT-46"/>
       <use x="83.398438" xlink:href="#ArialMT-48"/>
       <use x="139.013672" xlink:href="#ArialMT-49"/>
       <use x="194.628906" xlink:href="#ArialMT-54"/>
      </g>
     </g>
    </g>
    <g id="text_18">
     <!-- Probability Distribution Function -->
     <defs>
      <path d="M 7.71875 0 
L 7.71875 71.578125 
L 34.71875 71.578125 
Q 41.84375 71.578125 45.609375 70.90625 
Q 50.875 70.015625 54.4375 67.546875 
Q 58.015625 65.09375 60.1875 60.640625 
Q 62.359375 56.203125 62.359375 50.875 
Q 62.359375 41.75 56.546875 35.421875 
Q 50.734375 29.109375 35.546875 29.109375 
L 17.1875 29.109375 
L 17.1875 0 
z
M 17.1875 37.546875 
L 35.6875 37.546875 
Q 44.875 37.546875 48.734375 40.96875 
Q 52.59375 44.390625 52.59375 50.59375 
Q 52.59375 55.078125 50.3125 58.265625 
Q 48.046875 61.46875 44.34375 62.5 
Q 41.9375 63.140625 35.5 63.140625 
L 17.1875 63.140625 
z
" id="ArialMT-80"/>
      <path d="M 3.328125 25.921875 
Q 3.328125 40.328125 11.328125 47.265625 
Q 18.015625 53.03125 27.640625 53.03125 
Q 38.328125 53.03125 45.109375 46.015625 
Q 51.90625 39.015625 51.90625 26.65625 
Q 51.90625 16.65625 48.90625 10.90625 
Q 45.90625 5.171875 40.15625 2 
Q 34.421875 -1.171875 27.640625 -1.171875 
Q 16.75 -1.171875 10.03125 5.8125 
Q 3.328125 12.796875 3.328125 25.921875 
z
M 12.359375 25.921875 
Q 12.359375 15.96875 16.703125 11.015625 
Q 21.046875 6.0625 27.640625 6.0625 
Q 34.1875 6.0625 38.53125 11.03125 
Q 42.875 16.015625 42.875 26.21875 
Q 42.875 35.84375 38.5 40.796875 
Q 34.125 45.75 27.640625 45.75 
Q 21.046875 45.75 16.703125 40.8125 
Q 12.359375 35.890625 12.359375 25.921875 
z
" id="ArialMT-111"/>
      <path d="M 14.703125 0 
L 6.546875 0 
L 6.546875 71.578125 
L 15.328125 71.578125 
L 15.328125 46.046875 
Q 20.90625 53.03125 29.546875 53.03125 
Q 34.328125 53.03125 38.59375 51.09375 
Q 42.875 49.171875 45.625 45.671875 
Q 48.390625 42.1875 49.953125 37.25 
Q 51.515625 32.328125 51.515625 26.703125 
Q 51.515625 13.375 44.921875 6.09375 
Q 38.328125 -1.171875 29.109375 -1.171875 
Q 19.921875 -1.171875 14.703125 6.5 
z
M 14.59375 26.3125 
Q 14.59375 17 17.140625 12.84375 
Q 21.296875 6.0625 28.375 6.0625 
Q 34.125 6.0625 38.328125 11.0625 
Q 42.53125 16.0625 42.53125 25.984375 
Q 42.53125 36.140625 38.5 40.96875 
Q 34.46875 45.796875 28.765625 45.796875 
Q 23 45.796875 18.796875 40.796875 
Q 14.59375 35.796875 14.59375 26.3125 
z
" id="ArialMT-98"/>
      <path d="M 6.390625 0 
L 6.390625 71.578125 
L 15.1875 71.578125 
L 15.1875 0 
z
" id="ArialMT-108"/>
      <path d="M 25.78125 7.859375 
L 27.046875 0.09375 
Q 23.34375 -0.6875 20.40625 -0.6875 
Q 15.625 -0.6875 12.984375 0.828125 
Q 10.359375 2.34375 9.28125 4.8125 
Q 8.203125 7.28125 8.203125 15.1875 
L 8.203125 45.015625 
L 1.765625 45.015625 
L 1.765625 51.859375 
L 8.203125 51.859375 
L 8.203125 64.703125 
L 16.9375 69.96875 
L 16.9375 51.859375 
L 25.78125 51.859375 
L 25.78125 45.015625 
L 16.9375 45.015625 
L 16.9375 14.703125 
Q 16.9375 10.9375 17.40625 9.859375 
Q 17.875 8.796875 18.921875 8.15625 
Q 19.96875 7.515625 21.921875 7.515625 
Q 23.390625 7.515625 25.78125 7.859375 
z
" id="ArialMT-116"/>
      <path d="M 6.203125 -19.96875 
L 5.21875 -11.71875 
Q 8.109375 -12.5 10.25 -12.5 
Q 13.1875 -12.5 14.9375 -11.515625 
Q 16.703125 -10.546875 17.828125 -8.796875 
Q 18.65625 -7.46875 20.515625 -2.25 
Q 20.75 -1.515625 21.296875 -0.09375 
L 1.609375 51.859375 
L 11.078125 51.859375 
L 21.875 21.828125 
Q 23.96875 16.109375 25.640625 9.8125 
Q 27.15625 15.875 29.25 21.625 
L 40.328125 51.859375 
L 49.125 51.859375 
L 29.390625 -0.875 
Q 26.21875 -9.421875 24.46875 -12.640625 
Q 22.125 -17 19.09375 -19.015625 
Q 16.0625 -21.046875 11.859375 -21.046875 
Q 9.328125 -21.046875 6.203125 -19.96875 
z
" id="ArialMT-121"/>
      <path d="M 7.71875 0 
L 7.71875 71.578125 
L 32.375 71.578125 
Q 40.71875 71.578125 45.125 70.5625 
Q 51.265625 69.140625 55.609375 65.4375 
Q 61.28125 60.640625 64.078125 53.1875 
Q 66.890625 45.75 66.890625 36.1875 
Q 66.890625 28.03125 64.984375 21.734375 
Q 63.09375 15.4375 60.109375 11.296875 
Q 57.125 7.171875 53.578125 4.796875 
Q 50.046875 2.4375 45.046875 1.21875 
Q 40.046875 0 33.546875 0 
z
M 17.1875 8.453125 
L 32.46875 8.453125 
Q 39.546875 8.453125 43.578125 9.765625 
Q 47.609375 11.078125 50 13.484375 
Q 53.375 16.84375 55.25 22.53125 
Q 57.125 28.21875 57.125 36.328125 
Q 57.125 47.5625 53.4375 53.59375 
Q 49.75 59.625 44.484375 61.671875 
Q 40.671875 63.140625 32.234375 63.140625 
L 17.1875 63.140625 
z
" id="ArialMT-68"/>
      <path d="M 8.203125 0 
L 8.203125 71.578125 
L 56.5 71.578125 
L 56.5 63.140625 
L 17.671875 63.140625 
L 17.671875 40.96875 
L 51.265625 40.96875 
L 51.265625 32.515625 
L 17.671875 32.515625 
L 17.671875 0 
z
" id="ArialMT-70"/>
      <path d="M 40.4375 19 
L 49.078125 17.875 
Q 47.65625 8.9375 41.8125 3.875 
Q 35.984375 -1.171875 27.484375 -1.171875 
Q 16.84375 -1.171875 10.375 5.78125 
Q 3.90625 12.75 3.90625 25.734375 
Q 3.90625 34.125 6.6875 40.421875 
Q 9.46875 46.734375 15.15625 49.875 
Q 20.84375 53.03125 27.546875 53.03125 
Q 35.984375 53.03125 41.359375 48.75 
Q 46.734375 44.484375 48.25 36.625 
L 39.703125 35.296875 
Q 38.484375 40.53125 35.375 43.15625 
Q 32.28125 45.796875 27.875 45.796875 
Q 21.234375 45.796875 17.078125 41.03125 
Q 12.9375 36.28125 12.9375 25.984375 
Q 12.9375 15.53125 16.9375 10.796875 
Q 20.953125 6.0625 27.390625 6.0625 
Q 32.5625 6.0625 36.03125 9.234375 
Q 39.5 12.40625 40.4375 19 
z
" id="ArialMT-99"/>
     </defs>
     <g style="fill:#262626;" transform="translate(28.23225 319.0685)rotate(-90)scale(0.168 -0.168)">
      <use xlink:href="#ArialMT-80"/>
      <use x="66.699219" xlink:href="#ArialMT-114"/>
      <use x="100" xlink:href="#ArialMT-111"/>
      <use x="155.615234" xlink:href="#ArialMT-98"/>
      <use x="211.230469" xlink:href="#ArialMT-97"/>
      <use x="266.845703" xlink:href="#ArialMT-98"/>
      <use x="322.460938" xlink:href="#ArialMT-105"/>
      <use x="344.677734" xlink:href="#ArialMT-108"/>
      <use x="366.894531" xlink:href="#ArialMT-105"/>
      <use x="389.111328" xlink:href="#ArialMT-116"/>
      <use x="416.894531" xlink:href="#ArialMT-121"/>
      <use x="466.894531" xlink:href="#ArialMT-32"/>
      <use x="494.677734" xlink:href="#ArialMT-68"/>
      <use x="566.894531" xlink:href="#ArialMT-105"/>
      <use x="589.111328" xlink:href="#ArialMT-115"/>
      <use x="639.111328" xlink:href="#ArialMT-116"/>
      <use x="666.894531" xlink:href="#ArialMT-114"/>
      <use x="700.195312" xlink:href="#ArialMT-105"/>
      <use x="722.412109" xlink:href="#ArialMT-98"/>
      <use x="778.027344" xlink:href="#ArialMT-117"/>
      <use x="833.642578" xlink:href="#ArialMT-116"/>
      <use x="861.425781" xlink:href="#ArialMT-105"/>
      <use x="883.642578" xlink:href="#ArialMT-111"/>
      <use x="939.257812" xlink:href="#ArialMT-110"/>
      <use x="994.873047" xlink:href="#ArialMT-32"/>
      <use x="1022.65625" xlink:href="#ArialMT-70"/>
      <use x="1083.740234" xlink:href="#ArialMT-117"/>
      <use x="1139.355469" xlink:href="#ArialMT-110"/>
      <use x="1194.970703" xlink:href="#ArialMT-99"/>
      <use x="1244.970703" xlink:href="#ArialMT-116"/>
      <use x="1272.753906" xlink:href="#ArialMT-105"/>
      <use x="1294.970703" xlink:href="#ArialMT-111"/>
      <use x="1350.585938" xlink:href="#ArialMT-110"/>
     </g>
    </g>
   </g>
   <g id="patch_3">
    <path clip-path="url(#p4655e228f0)" d="M 90.206086 344.68 
L 93.941592 344.68 
L 93.941592 286.378448 
L 90.206086 286.378448 
z
" style="fill:#fc4f30;"/>
   </g>
   <g id="patch_4">
    <path clip-path="url(#p4655e228f0)" d="M 93.941592 344.68 
L 97.677098 344.68 
L 97.677098 240.751146 
L 93.941592 240.751146 
z
" style="fill:#fc4f30;"/>
   </g>
   <g id="patch_5">
    <path clip-path="url(#p4655e228f0)" d="M 97.677098 344.68 
L 101.412604 344.68 
L 101.412604 211.177895 
L 97.677098 211.177895 
z
" style="fill:#fc4f30;"/>
   </g>
   <g id="patch_6">
    <path clip-path="url(#p4655e228f0)" d="M 101.412604 344.68 
L 105.14811 344.68 
L 105.14811 203.573345 
L 101.412604 203.573345 
z
" style="fill:#fc4f30;"/>
   </g>
   <g id="patch_7">
    <path clip-path="url(#p4655e228f0)" d="M 105.14811 344.68 
L 108.883616 344.68 
L 108.883616 212.022845 
L 105.14811 212.022845 
z
" style="fill:#fc4f30;"/>
   </g>
   <g id="patch_8">
    <path clip-path="url(#p4655e228f0)" d="M 108.883616 344.68 
L 112.619122 344.68 
L 112.619122 184.139494 
L 108.883616 184.139494 
z
" style="fill:#fc4f30;"/>
   </g>
   <g id="patch_9">
    <path clip-path="url(#p4655e228f0)" d="M 112.619122 344.68 
L 116.354628 344.68 
L 116.354628 208.643045 
L 112.619122 208.643045 
z
" style="fill:#fc4f30;"/>
   </g>
   <g id="patch_10">
    <path clip-path="url(#p4655e228f0)" d="M 116.354628 344.68 
L 120.090135 344.68 
L 120.090135 166.395544 
L 116.354628 166.395544 
z
" style="fill:#fc4f30;"/>
   </g>
   <g id="patch_11">
    <path clip-path="url(#p4655e228f0)" d="M 120.090135 344.68 
L 123.825641 344.68 
L 123.825641 150.341493 
L 120.090135 150.341493 
z
" style="fill:#fc4f30;"/>
   </g>
   <g id="patch_12">
    <path clip-path="url(#p4655e228f0)" d="M 123.825641 344.68 
L 127.561147 344.68 
L 127.561147 111.473792 
L 123.825641 111.473792 
z
" style="fill:#fc4f30;"/>
   </g>
   <g id="patch_13">
    <path clip-path="url(#p4655e228f0)" d="M 127.561147 344.68 
L 131.296653 344.68 
L 131.296653 103.869242 
L 127.561147 103.869242 
z
" style="fill:#fc4f30;"/>
   </g>
   <g id="patch_14">
    <path clip-path="url(#p4655e228f0)" d="M 131.296653 344.68 
L 135.032159 344.68 
L 135.032159 77.675791 
L 131.296653 77.675791 
z
" style="fill:#fc4f30;"/>
   </g>
   <g id="patch_15">
    <path clip-path="url(#p4655e228f0)" d="M 135.032159 344.68 
L 138.767665 344.68 
L 138.767665 91.194991 
L 135.032159 91.194991 
z
" style="fill:#fc4f30;"/>
   </g>
   <g id="patch_16">
    <path clip-path="url(#p4655e228f0)" d="M 138.767665 344.68 
L 142.503171 344.68 
L 142.503171 92.884891 
L 138.767665 92.884891 
z
" style="fill:#fc4f30;"/>
   </g>
   <g id="patch_17">
    <path clip-path="url(#p4655e228f0)" d="M 142.503171 344.68 
L 146.238677 344.68 
L 146.238677 89.505091 
L 142.503171 89.505091 
z
" style="fill:#fc4f30;"/>
   </g>
   <g id="patch_18">
    <path clip-path="url(#p4655e228f0)" d="M 146.238677 344.68 
L 149.974183 344.68 
L 149.974183 81.900541 
L 146.238677 81.900541 
z
" style="fill:#fc4f30;"/>
   </g>
   <g id="patch_19">
    <path clip-path="url(#p4655e228f0)" d="M 149.974183 344.68 
L 153.70969 344.68 
L 153.70969 70.91619 
L 149.974183 70.91619 
z
" style="fill:#fc4f30;"/>
   </g>
   <g id="patch_20">
    <path clip-path="url(#p4655e228f0)" d="M 153.70969 344.68 
L 157.445196 344.68 
L 157.445196 92.884891 
L 153.70969 92.884891 
z
" style="fill:#fc4f30;"/>
   </g>
   <g id="patch_21">
    <path clip-path="url(#p4655e228f0)" d="M 157.445196 344.68 
L 161.180702 344.68 
L 161.180702 108.093992 
L 157.445196 108.093992 
z
" style="fill:#fc4f30;"/>
   </g>
   <g id="patch_22">
    <path clip-path="url(#p4655e228f0)" d="M 161.180702 344.68 
L 164.916208 344.68 
L 164.916208 136.822293 
L 161.180702 136.822293 
z
" style="fill:#fc4f30;"/>
   </g>
   <g id="patch_23">
    <path clip-path="url(#p4655e228f0)" d="M 164.916208 344.68 
L 168.651714 344.68 
L 168.651714 151.186443 
L 164.916208 151.186443 
z
" style="fill:#fc4f30;"/>
   </g>
   <g id="patch_24">
    <path clip-path="url(#p4655e228f0)" d="M 168.651714 344.68 
L 172.38722 344.68 
L 172.38722 142.736943 
L 168.651714 142.736943 
z
" style="fill:#fc4f30;"/>
   </g>
   <g id="patch_25">
    <path clip-path="url(#p4655e228f0)" d="M 172.38722 344.68 
L 176.122726 344.68 
L 176.122726 156.256143 
L 172.38722 156.256143 
z
" style="fill:#fc4f30;"/>
   </g>
   <g id="patch_26">
    <path clip-path="url(#p4655e228f0)" d="M 176.122726 344.68 
L 179.858232 344.68 
L 179.858232 159.635944 
L 176.122726 159.635944 
z
" style="fill:#fc4f30;"/>
   </g>
   <g id="patch_27">
    <path clip-path="url(#p4655e228f0)" d="M 179.858232 344.68 
L 183.593738 344.68 
L 183.593738 201.038495 
L 179.858232 201.038495 
z
" style="fill:#fc4f30;"/>
   </g>
   <g id="patch_28">
    <path clip-path="url(#p4655e228f0)" d="M 183.593738 344.68 
L 187.329244 344.68 
L 187.329244 183.294544 
L 183.593738 183.294544 
z
" style="fill:#fc4f30;"/>
   </g>
   <g id="patch_29">
    <path clip-path="url(#p4655e228f0)" d="M 187.329244 344.68 
L 191.064751 344.68 
L 191.064751 218.782446 
L 187.329244 218.782446 
z
" style="fill:#fc4f30;"/>
   </g>
   <g id="patch_30">
    <path clip-path="url(#p4655e228f0)" d="M 191.064751 344.68 
L 194.800257 344.68 
L 194.800257 228.076896 
L 191.064751 228.076896 
z
" style="fill:#fc4f30;"/>
   </g>
   <g id="patch_31">
    <path clip-path="url(#p4655e228f0)" d="M 194.800257 344.68 
L 198.535763 344.68 
L 198.535763 217.937496 
L 194.800257 217.937496 
z
" style="fill:#fc4f30;"/>
   </g>
   <g id="patch_32">
    <path clip-path="url(#p4655e228f0)" d="M 198.535763 344.68 
L 202.271269 344.68 
L 202.271269 225.542046 
L 198.535763 225.542046 
z
" style="fill:#fc4f30;"/>
   </g>
   <g id="patch_33">
    <path clip-path="url(#p4655e228f0)" d="M 202.271269 344.68 
L 206.006775 344.68 
L 206.006775 230.611746 
L 202.271269 230.611746 
z
" style="fill:#fc4f30;"/>
   </g>
   <g id="patch_34">
    <path clip-path="url(#p4655e228f0)" d="M 206.006775 344.68 
L 209.742281 344.68 
L 209.742281 273.704198 
L 206.006775 273.704198 
z
" style="fill:#fc4f30;"/>
   </g>
   <g id="patch_35">
    <path clip-path="url(#p4655e228f0)" d="M 209.742281 344.68 
L 213.477787 344.68 
L 213.477787 264.409747 
L 209.742281 264.409747 
z
" style="fill:#fc4f30;"/>
   </g>
   <g id="patch_36">
    <path clip-path="url(#p4655e228f0)" d="M 213.477787 344.68 
L 217.213293 344.68 
L 217.213293 268.634497 
L 213.477787 268.634497 
z
" style="fill:#fc4f30;"/>
   </g>
   <g id="patch_37">
    <path clip-path="url(#p4655e228f0)" d="M 217.213293 344.68 
L 220.948799 344.68 
L 220.948799 268.634497 
L 217.213293 268.634497 
z
" style="fill:#fc4f30;"/>
   </g>
   <g id="patch_38">
    <path clip-path="url(#p4655e228f0)" d="M 220.948799 344.68 
L 224.684305 344.68 
L 224.684305 276.239048 
L 220.948799 276.239048 
z
" style="fill:#fc4f30;"/>
   </g>
   <g id="patch_39">
    <path clip-path="url(#p4655e228f0)" d="M 224.684305 344.68 
L 228.419812 344.68 
L 228.419812 273.704198 
L 224.684305 273.704198 
z
" style="fill:#fc4f30;"/>
   </g>
   <g id="patch_40">
    <path clip-path="url(#p4655e228f0)" d="M 228.419812 344.68 
L 232.155318 344.68 
L 232.155318 276.239048 
L 228.419812 276.239048 
z
" style="fill:#fc4f30;"/>
   </g>
   <g id="patch_41">
    <path clip-path="url(#p4655e228f0)" d="M 232.155318 344.68 
L 235.890824 344.68 
L 235.890824 282.153698 
L 232.155318 282.153698 
z
" style="fill:#fc4f30;"/>
   </g>
   <g id="patch_42">
    <path clip-path="url(#p4655e228f0)" d="M 235.890824 344.68 
L 239.62633 344.68 
L 239.62633 301.587549 
L 235.890824 301.587549 
z
" style="fill:#fc4f30;"/>
   </g>
   <g id="patch_43">
    <path clip-path="url(#p4655e228f0)" d="M 239.62633 344.68 
L 243.361836 344.68 
L 243.361836 295.672898 
L 239.62633 295.672898 
z
" style="fill:#fc4f30;"/>
   </g>
   <g id="patch_44">
    <path clip-path="url(#p4655e228f0)" d="M 243.361836 344.68 
L 247.097342 344.68 
L 247.097342 315.106749 
L 243.361836 315.106749 
z
" style="fill:#fc4f30;"/>
   </g>
   <g id="patch_45">
    <path clip-path="url(#p4655e228f0)" d="M 247.097342 344.68 
L 250.832848 344.68 
L 250.832848 302.432499 
L 247.097342 302.432499 
z
" style="fill:#fc4f30;"/>
   </g>
   <g id="patch_46">
    <path clip-path="url(#p4655e228f0)" d="M 250.832848 344.68 
L 254.568354 344.68 
L 254.568354 308.347149 
L 250.832848 308.347149 
z
" style="fill:#fc4f30;"/>
   </g>
   <g id="patch_47">
    <path clip-path="url(#p4655e228f0)" d="M 254.568354 344.68 
L 258.30386 344.68 
L 258.30386 310.037049 
L 254.568354 310.037049 
z
" style="fill:#fc4f30;"/>
   </g>
   <g id="patch_48">
    <path clip-path="url(#p4655e228f0)" d="M 258.30386 344.68 
L 262.039367 344.68 
L 262.039367 310.037049 
L 258.30386 310.037049 
z
" style="fill:#fc4f30;"/>
   </g>
   <g id="patch_49">
    <path clip-path="url(#p4655e228f0)" d="M 262.039367 344.68 
L 265.774873 344.68 
L 265.774873 307.502199 
L 262.039367 307.502199 
z
" style="fill:#fc4f30;"/>
   </g>
   <g id="patch_50">
    <path clip-path="url(#p4655e228f0)" d="M 265.774873 344.68 
L 269.510379 344.68 
L 269.510379 310.037049 
L 265.774873 310.037049 
z
" style="fill:#fc4f30;"/>
   </g>
   <g id="patch_51">
    <path clip-path="url(#p4655e228f0)" d="M 269.510379 344.68 
L 273.245885 344.68 
L 273.245885 313.416849 
L 269.510379 313.416849 
z
" style="fill:#fc4f30;"/>
   </g>
   <g id="patch_52">
    <path clip-path="url(#p4655e228f0)" d="M 273.245885 344.68 
L 276.981391 344.68 
L 276.981391 314.261799 
L 273.245885 314.261799 
z
" style="fill:#fc4f30;"/>
   </g>
   <g id="patch_53">
    <path clip-path="url(#p4655e228f0)" d="M 276.981391 344.68 
L 280.716897 344.68 
L 280.716897 304.122399 
L 276.981391 304.122399 
z
" style="fill:#fc4f30;"/>
   </g>
   <g id="patch_54">
    <path clip-path="url(#p4655e228f0)" d="M 280.716897 344.68 
L 284.452403 344.68 
L 284.452403 310.881999 
L 280.716897 310.881999 
z
" style="fill:#fc4f30;"/>
   </g>
   <g id="patch_55">
    <path clip-path="url(#p4655e228f0)" d="M 284.452403 344.68 
L 288.187909 344.68 
L 288.187909 321.021399 
L 284.452403 321.021399 
z
" style="fill:#fc4f30;"/>
   </g>
   <g id="patch_56">
    <path clip-path="url(#p4655e228f0)" d="M 288.187909 344.68 
L 291.923415 344.68 
L 291.923415 327.780999 
L 288.187909 327.780999 
z
" style="fill:#fc4f30;"/>
   </g>
   <g id="patch_57">
    <path clip-path="url(#p4655e228f0)" d="M 291.923415 344.68 
L 295.658921 344.68 
L 295.658921 326.936049 
L 291.923415 326.936049 
z
" style="fill:#fc4f30;"/>
   </g>
   <g id="patch_58">
    <path clip-path="url(#p4655e228f0)" d="M 295.658921 344.68 
L 299.394428 344.68 
L 299.394428 335.38555 
L 295.658921 335.38555 
z
" style="fill:#fc4f30;"/>
   </g>
   <g id="patch_59">
    <path clip-path="url(#p4655e228f0)" d="M 299.394428 344.68 
L 303.129934 344.68 
L 303.129934 325.246149 
L 299.394428 325.246149 
z
" style="fill:#fc4f30;"/>
   </g>
   <g id="patch_60">
    <path clip-path="url(#p4655e228f0)" d="M 303.129934 344.68 
L 306.86544 344.68 
L 306.86544 337.9204 
L 303.129934 337.9204 
z
" style="fill:#fc4f30;"/>
   </g>
   <g id="patch_61">
    <path clip-path="url(#p4655e228f0)" d="M 306.86544 344.68 
L 310.600946 344.68 
L 310.600946 337.9204 
L 306.86544 337.9204 
z
" style="fill:#fc4f30;"/>
   </g>
   <g id="patch_62">
    <path clip-path="url(#p4655e228f0)" d="M 310.600946 344.68 
L 314.336452 344.68 
L 314.336452 338.76535 
L 310.600946 338.76535 
z
" style="fill:#fc4f30;"/>
   </g>
   <g id="patch_63">
    <path clip-path="url(#p4655e228f0)" d="M 314.336452 344.68 
L 318.071958 344.68 
L 318.071958 334.5406 
L 314.336452 334.5406 
z
" style="fill:#fc4f30;"/>
   </g>
   <g id="patch_64">
    <path clip-path="url(#p4655e228f0)" d="M 318.071958 344.68 
L 321.807464 344.68 
L 321.807464 332.00575 
L 318.071958 332.00575 
z
" style="fill:#fc4f30;"/>
   </g>
   <g id="patch_65">
    <path clip-path="url(#p4655e228f0)" d="M 321.807464 344.68 
L 325.54297 344.68 
L 325.54297 342.14515 
L 321.807464 342.14515 
z
" style="fill:#fc4f30;"/>
   </g>
   <g id="patch_66">
    <path clip-path="url(#p4655e228f0)" d="M 325.54297 344.68 
L 329.278476 344.68 
L 329.278476 342.14515 
L 325.54297 342.14515 
z
" style="fill:#fc4f30;"/>
   </g>
   <g id="patch_67">
    <path clip-path="url(#p4655e228f0)" d="M 329.278476 344.68 
L 333.013982 344.68 
L 333.013982 342.9901 
L 329.278476 342.9901 
z
" style="fill:#fc4f30;"/>
   </g>
   <g id="patch_68">
    <path clip-path="url(#p4655e228f0)" d="M 333.013982 344.68 
L 336.749489 344.68 
L 336.749489 342.14515 
L 333.013982 342.14515 
z
" style="fill:#fc4f30;"/>
   </g>
   <g id="patch_69">
    <path clip-path="url(#p4655e228f0)" d="M 336.749489 344.68 
L 340.484995 344.68 
L 340.484995 340.45525 
L 336.749489 340.45525 
z
" style="fill:#fc4f30;"/>
   </g>
   <g id="patch_70">
    <path clip-path="url(#p4655e228f0)" d="M 340.484995 344.68 
L 344.220501 344.68 
L 344.220501 339.6103 
L 340.484995 339.6103 
z
" style="fill:#fc4f30;"/>
   </g>
   <g id="patch_71">
    <path clip-path="url(#p4655e228f0)" d="M 344.220501 344.68 
L 347.956007 344.68 
L 347.956007 338.76535 
L 344.220501 338.76535 
z
" style="fill:#fc4f30;"/>
   </g>
   <g id="patch_72">
    <path clip-path="url(#p4655e228f0)" d="M 347.956007 344.68 
L 351.691513 344.68 
L 351.691513 341.3002 
L 347.956007 341.3002 
z
" style="fill:#fc4f30;"/>
   </g>
   <g id="patch_73">
    <path clip-path="url(#p4655e228f0)" d="M 351.691513 344.68 
L 355.427019 344.68 
L 355.427019 342.9901 
L 351.691513 342.9901 
z
" style="fill:#fc4f30;"/>
   </g>
   <g id="patch_74">
    <path clip-path="url(#p4655e228f0)" d="M 355.427019 344.68 
L 359.162525 344.68 
L 359.162525 342.9901 
L 355.427019 342.9901 
z
" style="fill:#fc4f30;"/>
   </g>
   <g id="patch_75">
    <path clip-path="url(#p4655e228f0)" d="M 359.162525 344.68 
L 362.898031 344.68 
L 362.898031 340.45525 
L 359.162525 340.45525 
z
" style="fill:#fc4f30;"/>
   </g>
   <g id="patch_76">
    <path clip-path="url(#p4655e228f0)" d="M 362.898031 344.68 
L 366.633537 344.68 
L 366.633537 342.14515 
L 362.898031 342.14515 
z
" style="fill:#fc4f30;"/>
   </g>
   <g id="patch_77">
    <path clip-path="url(#p4655e228f0)" d="M 366.633537 344.68 
L 370.369044 344.68 
L 370.369044 339.6103 
L 366.633537 339.6103 
z
" style="fill:#fc4f30;"/>
   </g>
   <g id="patch_78">
    <path clip-path="url(#p4655e228f0)" d="M 370.369044 344.68 
L 374.10455 344.68 
L 374.10455 342.14515 
L 370.369044 342.14515 
z
" style="fill:#fc4f30;"/>
   </g>
   <g id="patch_79">
    <path clip-path="url(#p4655e228f0)" d="M 374.10455 344.68 
L 377.840056 344.68 
L 377.840056 342.14515 
L 374.10455 342.14515 
z
" style="fill:#fc4f30;"/>
   </g>
   <g id="patch_80">
    <path clip-path="url(#p4655e228f0)" d="M 377.840056 344.68 
L 381.575562 344.68 
L 381.575562 342.9901 
L 377.840056 342.9901 
z
" style="fill:#fc4f30;"/>
   </g>
   <g id="patch_81">
    <path clip-path="url(#p4655e228f0)" d="M 381.575562 344.68 
L 385.311068 344.68 
L 385.311068 342.9901 
L 381.575562 342.9901 
z
" style="fill:#fc4f30;"/>
   </g>
   <g id="patch_82">
    <path clip-path="url(#p4655e228f0)" d="M 385.311068 344.68 
L 389.046574 344.68 
L 389.046574 344.68 
L 385.311068 344.68 
z
" style="fill:#fc4f30;"/>
   </g>
   <g id="patch_83">
    <path clip-path="url(#p4655e228f0)" d="M 389.046574 344.68 
L 392.78208 344.68 
L 392.78208 341.3002 
L 389.046574 341.3002 
z
" style="fill:#fc4f30;"/>
   </g>
   <g id="patch_84">
    <path clip-path="url(#p4655e228f0)" d="M 392.78208 344.68 
L 396.517586 344.68 
L 396.517586 343.83505 
L 392.78208 343.83505 
z
" style="fill:#fc4f30;"/>
   </g>
   <g id="patch_85">
    <path clip-path="url(#p4655e228f0)" d="M 396.517586 344.68 
L 400.253092 344.68 
L 400.253092 342.9901 
L 396.517586 342.9901 
z
" style="fill:#fc4f30;"/>
   </g>
   <g id="patch_86">
    <path clip-path="url(#p4655e228f0)" d="M 400.253092 344.68 
L 403.988598 344.68 
L 403.988598 342.9901 
L 400.253092 342.9901 
z
" style="fill:#fc4f30;"/>
   </g>
   <g id="patch_87">
    <path clip-path="url(#p4655e228f0)" d="M 403.988598 344.68 
L 407.724105 344.68 
L 407.724105 342.14515 
L 403.988598 342.14515 
z
" style="fill:#fc4f30;"/>
   </g>
   <g id="patch_88">
    <path clip-path="url(#p4655e228f0)" d="M 407.724105 344.68 
L 411.459611 344.68 
L 411.459611 340.45525 
L 407.724105 340.45525 
z
" style="fill:#fc4f30;"/>
   </g>
   <g id="patch_89">
    <path clip-path="url(#p4655e228f0)" d="M 411.459611 344.68 
L 415.195117 344.68 
L 415.195117 341.3002 
L 411.459611 341.3002 
z
" style="fill:#fc4f30;"/>
   </g>
   <g id="patch_90">
    <path clip-path="url(#p4655e228f0)" d="M 415.195117 344.68 
L 418.930623 344.68 
L 418.930623 342.14515 
L 415.195117 342.14515 
z
" style="fill:#fc4f30;"/>
   </g>
   <g id="patch_91">
    <path clip-path="url(#p4655e228f0)" d="M 418.930623 344.68 
L 422.666129 344.68 
L 422.666129 344.68 
L 418.930623 344.68 
z
" style="fill:#fc4f30;"/>
   </g>
   <g id="patch_92">
    <path clip-path="url(#p4655e228f0)" d="M 422.666129 344.68 
L 426.401635 344.68 
L 426.401635 340.45525 
L 422.666129 340.45525 
z
" style="fill:#fc4f30;"/>
   </g>
   <g id="patch_93">
    <path clip-path="url(#p4655e228f0)" d="M 426.401635 344.68 
L 430.137141 344.68 
L 430.137141 343.83505 
L 426.401635 343.83505 
z
" style="fill:#fc4f30;"/>
   </g>
   <g id="patch_94">
    <path clip-path="url(#p4655e228f0)" d="M 430.137141 344.68 
L 433.872647 344.68 
L 433.872647 343.83505 
L 430.137141 343.83505 
z
" style="fill:#fc4f30;"/>
   </g>
   <g id="patch_95">
    <path clip-path="url(#p4655e228f0)" d="M 433.872647 344.68 
L 437.608153 344.68 
L 437.608153 341.3002 
L 433.872647 341.3002 
z
" style="fill:#fc4f30;"/>
   </g>
   <g id="patch_96">
    <path clip-path="url(#p4655e228f0)" d="M 437.608153 344.68 
L 441.343659 344.68 
L 441.343659 343.83505 
L 437.608153 343.83505 
z
" style="fill:#fc4f30;"/>
   </g>
   <g id="patch_97">
    <path clip-path="url(#p4655e228f0)" d="M 441.343659 344.68 
L 445.079166 344.68 
L 445.079166 342.9901 
L 441.343659 342.9901 
z
" style="fill:#fc4f30;"/>
   </g>
   <g id="patch_98">
    <path clip-path="url(#p4655e228f0)" d="M 445.079166 344.68 
L 448.814672 344.68 
L 448.814672 344.68 
L 445.079166 344.68 
z
" style="fill:#fc4f30;"/>
   </g>
   <g id="patch_99">
    <path clip-path="url(#p4655e228f0)" d="M 448.814672 344.68 
L 452.550178 344.68 
L 452.550178 344.68 
L 448.814672 344.68 
z
" style="fill:#fc4f30;"/>
   </g>
   <g id="patch_100">
    <path clip-path="url(#p4655e228f0)" d="M 452.550178 344.68 
L 456.285684 344.68 
L 456.285684 343.83505 
L 452.550178 343.83505 
z
" style="fill:#fc4f30;"/>
   </g>
   <g id="patch_101">
    <path clip-path="url(#p4655e228f0)" d="M 456.285684 344.68 
L 460.02119 344.68 
L 460.02119 342.9901 
L 456.285684 342.9901 
z
" style="fill:#fc4f30;"/>
   </g>
   <g id="patch_102">
    <path clip-path="url(#p4655e228f0)" d="M 460.02119 344.68 
L 463.756696 344.68 
L 463.756696 344.68 
L 460.02119 344.68 
z
" style="fill:#fc4f30;"/>
   </g>
   <g id="patch_103">
    <path clip-path="url(#p4655e228f0)" d="M 463.756696 344.68 
L 467.492202 344.68 
L 467.492202 343.83505 
L 463.756696 343.83505 
z
" style="fill:#fc4f30;"/>
   </g>
   <g id="patch_104">
    <path clip-path="url(#p4655e228f0)" d="M 467.492202 344.68 
L 471.227708 344.68 
L 471.227708 344.68 
L 467.492202 344.68 
z
" style="fill:#fc4f30;"/>
   </g>
   <g id="patch_105">
    <path clip-path="url(#p4655e228f0)" d="M 471.227708 344.68 
L 474.963214 344.68 
L 474.963214 344.68 
L 471.227708 344.68 
z
" style="fill:#fc4f30;"/>
   </g>
   <g id="patch_106">
    <path clip-path="url(#p4655e228f0)" d="M 474.963214 344.68 
L 478.698721 344.68 
L 478.698721 342.14515 
L 474.963214 342.14515 
z
" style="fill:#fc4f30;"/>
   </g>
   <g id="patch_107">
    <path clip-path="url(#p4655e228f0)" d="M 478.698721 344.68 
L 482.434227 344.68 
L 482.434227 343.83505 
L 478.698721 343.83505 
z
" style="fill:#fc4f30;"/>
   </g>
   <g id="patch_108">
    <path clip-path="url(#p4655e228f0)" d="M 482.434227 344.68 
L 486.169733 344.68 
L 486.169733 343.83505 
L 482.434227 343.83505 
z
" style="fill:#fc4f30;"/>
   </g>
   <g id="patch_109">
    <path clip-path="url(#p4655e228f0)" d="M 486.169733 344.68 
L 489.905239 344.68 
L 489.905239 344.68 
L 486.169733 344.68 
z
" style="fill:#fc4f30;"/>
   </g>
   <g id="patch_110">
    <path clip-path="url(#p4655e228f0)" d="M 489.905239 344.68 
L 493.640745 344.68 
L 493.640745 344.68 
L 489.905239 344.68 
z
" style="fill:#fc4f30;"/>
   </g>
   <g id="patch_111">
    <path clip-path="url(#p4655e228f0)" d="M 493.640745 344.68 
L 497.376251 344.68 
L 497.376251 344.68 
L 493.640745 344.68 
z
" style="fill:#fc4f30;"/>
   </g>
   <g id="patch_112">
    <path clip-path="url(#p4655e228f0)" d="M 497.376251 344.68 
L 501.111757 344.68 
L 501.111757 344.68 
L 497.376251 344.68 
z
" style="fill:#fc4f30;"/>
   </g>
   <g id="patch_113">
    <path clip-path="url(#p4655e228f0)" d="M 501.111757 344.68 
L 504.847263 344.68 
L 504.847263 342.9901 
L 501.111757 342.9901 
z
" style="fill:#fc4f30;"/>
   </g>
   <g id="patch_114">
    <path clip-path="url(#p4655e228f0)" d="M 504.847263 344.68 
L 508.582769 344.68 
L 508.582769 344.68 
L 504.847263 344.68 
z
" style="fill:#fc4f30;"/>
   </g>
   <g id="patch_115">
    <path clip-path="url(#p4655e228f0)" d="M 508.582769 344.68 
L 512.318275 344.68 
L 512.318275 344.68 
L 508.582769 344.68 
z
" style="fill:#fc4f30;"/>
   </g>
   <g id="patch_116">
    <path clip-path="url(#p4655e228f0)" d="M 512.318275 344.68 
L 516.053782 344.68 
L 516.053782 344.68 
L 512.318275 344.68 
z
" style="fill:#fc4f30;"/>
   </g>
   <g id="patch_117">
    <path clip-path="url(#p4655e228f0)" d="M 516.053782 344.68 
L 519.789288 344.68 
L 519.789288 344.68 
L 516.053782 344.68 
z
" style="fill:#fc4f30;"/>
   </g>
   <g id="patch_118">
    <path clip-path="url(#p4655e228f0)" d="M 519.789288 344.68 
L 523.524794 344.68 
L 523.524794 342.9901 
L 519.789288 342.9901 
z
" style="fill:#fc4f30;"/>
   </g>
   <g id="patch_119">
    <path clip-path="url(#p4655e228f0)" d="M 523.524794 344.68 
L 527.2603 344.68 
L 527.2603 344.68 
L 523.524794 344.68 
z
" style="fill:#fc4f30;"/>
   </g>
   <g id="patch_120">
    <path clip-path="url(#p4655e228f0)" d="M 527.2603 344.68 
L 530.995806 344.68 
L 530.995806 344.68 
L 527.2603 344.68 
z
" style="fill:#fc4f30;"/>
   </g>
   <g id="patch_121">
    <path clip-path="url(#p4655e228f0)" d="M 530.995806 344.68 
L 534.731312 344.68 
L 534.731312 342.9901 
L 530.995806 342.9901 
z
" style="fill:#fc4f30;"/>
   </g>
   <g id="patch_122">
    <path clip-path="url(#p4655e228f0)" d="M 534.731312 344.68 
L 538.466818 344.68 
L 538.466818 342.14515 
L 534.731312 342.14515 
z
" style="fill:#fc4f30;"/>
   </g>
   <g id="line2d_33">
    <path clip-path="url(#p4655e228f0)" d="M 90.203182 279.75401 
L 94.697053 250.185406 
L 98.067456 229.527598 
L 101.437859 210.421839 
L 104.808263 193.024612 
L 107.055198 182.427836 
L 109.302134 172.654659 
L 111.549069 163.71484 
L 113.796005 155.610674 
L 116.04294 148.337844 
L 118.289876 141.886223 
L 120.536811 136.240633 
L 122.783747 131.381539 
L 125.030682 127.2857 
L 127.277618 123.926771 
L 129.524553 121.275851 
L 130.648021 120.206288 
L 131.771489 119.301985 
L 132.894957 118.558828 
L 134.018424 117.972628 
L 135.141892 117.539136 
L 136.26536 117.254052 
L 137.388828 117.113039 
L 138.512296 117.111729 
L 139.635763 117.245733 
L 140.759231 117.510655 
L 141.882699 117.902095 
L 144.129634 119.046966 
L 146.37657 120.645399 
L 148.623505 122.662874 
L 150.870441 125.065486 
L 153.117376 127.820106 
L 155.364312 130.894516 
L 157.611247 134.257526 
L 160.981651 139.777706 
L 164.352054 145.783453 
L 168.845925 154.391915 
L 173.339796 163.509732 
L 180.080603 177.768246 
L 196.932619 213.734165 
L 202.549958 225.159545 
L 208.167297 236.086785 
L 212.661168 244.415183 
L 217.155039 252.344569 
L 221.64891 259.856015 
L 226.142781 266.938779 
L 230.636652 273.589058 
L 235.130523 279.808851 
L 239.624394 285.604934 
L 244.118265 290.987936 
L 248.612136 295.971522 
L 253.106007 300.571683 
L 257.599878 304.806109 
L 262.093749 308.693659 
L 266.58762 312.253906 
L 271.081491 315.506754 
L 275.575362 318.472124 
L 280.069233 321.169696 
L 284.563104 323.618704 
L 289.056975 325.837768 
L 293.550846 327.844779 
L 299.168185 330.081258 
L 304.785524 332.044381 
L 310.402863 333.763265 
L 316.020202 335.264724 
L 322.761008 336.813861 
L 329.501815 338.123313 
L 337.366089 339.392979 
L 345.230363 340.429065 
L 354.218105 341.378111 
L 364.329315 342.205137 
L 375.563993 342.892107 
L 389.045606 343.47729 
L 404.774155 343.928785 
L 424.996574 344.274663 
L 453.083268 344.511375 
L 499.145447 344.641726 
L 538.466818 344.66961 
L 538.466818 344.66961 
" style="fill:none;stroke:#008fd5;stroke-width:4;"/>
   </g>
   <g id="patch_123">
    <path d="M 67.79 344.68 
L 67.79 57.228 
" style="fill:none;stroke:#f0f0f0;stroke-linecap:square;stroke-linejoin:miter;stroke-width:3;"/>
   </g>
   <g id="patch_124">
    <path d="M 560.88 344.68 
L 560.88 57.228 
" style="fill:none;stroke:#f0f0f0;stroke-linecap:square;stroke-linejoin:miter;stroke-width:3;"/>
   </g>
   <g id="patch_125">
    <path d="M 67.79 344.68 
L 560.88 344.68 
" style="fill:none;stroke:#f0f0f0;stroke-linecap:square;stroke-linejoin:miter;stroke-width:3;"/>
   </g>
   <g id="patch_126">
    <path d="M 67.79 57.228 
L 560.88 57.228 
" style="fill:none;stroke:#f0f0f0;stroke-linecap:square;stroke-linejoin:miter;stroke-width:3;"/>
   </g>
   <g id="text_19">
    <!-- Wind Speed over CONUS, Summer -->
    <defs>
     <path d="M 21 0 
L 1.265625 51.859375 
L 10.546875 51.859375 
L 21.6875 20.796875 
Q 23.484375 15.765625 25 10.359375 
Q 26.171875 14.453125 28.265625 20.21875 
L 39.796875 51.859375 
L 48.828125 51.859375 
L 29.203125 0 
z
" id="ArialMT-118"/>
     <path d="M 58.796875 25.09375 
L 68.265625 22.703125 
Q 65.28125 11.03125 57.546875 4.90625 
Q 49.8125 -1.21875 38.625 -1.21875 
Q 27.046875 -1.21875 19.796875 3.484375 
Q 12.546875 8.203125 8.765625 17.140625 
Q 4.984375 26.078125 4.984375 36.328125 
Q 4.984375 47.515625 9.25 55.828125 
Q 13.53125 64.15625 21.40625 68.46875 
Q 29.296875 72.796875 38.765625 72.796875 
Q 49.515625 72.796875 56.828125 67.328125 
Q 64.15625 61.859375 67.046875 51.953125 
L 57.71875 49.75 
Q 55.21875 57.5625 50.484375 61.125 
Q 45.75 64.703125 38.578125 64.703125 
Q 30.328125 64.703125 24.78125 60.734375 
Q 19.234375 56.78125 16.984375 50.109375 
Q 14.75 43.453125 14.75 36.375 
Q 14.75 27.25 17.40625 20.4375 
Q 20.0625 13.625 25.671875 10.25 
Q 31.296875 6.890625 37.84375 6.890625 
Q 45.796875 6.890625 51.3125 11.46875 
Q 56.84375 16.0625 58.796875 25.09375 
z
" id="ArialMT-67"/>
     <path d="M 4.828125 34.859375 
Q 4.828125 52.6875 14.390625 62.765625 
Q 23.96875 72.859375 39.109375 72.859375 
Q 49.03125 72.859375 56.984375 68.109375 
Q 64.9375 63.375 69.109375 54.90625 
Q 73.296875 46.4375 73.296875 35.6875 
Q 73.296875 24.8125 68.890625 16.21875 
Q 64.5 7.625 56.4375 3.203125 
Q 48.390625 -1.21875 39.0625 -1.21875 
Q 28.953125 -1.21875 20.984375 3.65625 
Q 13.03125 8.546875 8.921875 16.984375 
Q 4.828125 25.4375 4.828125 34.859375 
z
M 14.59375 34.71875 
Q 14.59375 21.78125 21.546875 14.328125 
Q 28.515625 6.890625 39.015625 6.890625 
Q 49.703125 6.890625 56.609375 14.40625 
Q 63.53125 21.921875 63.53125 35.75 
Q 63.53125 44.484375 60.578125 51 
Q 57.625 57.515625 51.921875 61.109375 
Q 46.234375 64.703125 39.15625 64.703125 
Q 29.109375 64.703125 21.84375 57.78125 
Q 14.59375 50.875 14.59375 34.71875 
z
" id="ArialMT-79"/>
     <path d="M 7.625 0 
L 7.625 71.578125 
L 17.328125 71.578125 
L 54.9375 15.375 
L 54.9375 71.578125 
L 64.015625 71.578125 
L 64.015625 0 
L 54.296875 0 
L 16.703125 56.25 
L 16.703125 0 
z
" id="ArialMT-78"/>
     <path d="M 54.6875 71.578125 
L 64.15625 71.578125 
L 64.15625 30.21875 
Q 64.15625 19.4375 61.71875 13.078125 
Q 59.28125 6.734375 52.90625 2.75 
Q 46.53125 -1.21875 36.1875 -1.21875 
Q 26.125 -1.21875 19.71875 2.25 
Q 13.328125 5.71875 10.59375 12.28125 
Q 7.859375 18.84375 7.859375 30.21875 
L 7.859375 71.578125 
L 17.328125 71.578125 
L 17.328125 30.28125 
Q 17.328125 20.953125 19.0625 16.53125 
Q 20.796875 12.109375 25.015625 9.71875 
Q 29.25 7.328125 35.359375 7.328125 
Q 45.796875 7.328125 50.234375 12.0625 
Q 54.6875 16.796875 54.6875 30.28125 
z
" id="ArialMT-85"/>
     <path d="M 8.890625 0 
L 8.890625 10.015625 
L 18.890625 10.015625 
L 18.890625 0 
Q 18.890625 -5.515625 16.9375 -8.90625 
Q 14.984375 -12.3125 10.75 -14.15625 
L 8.296875 -10.40625 
Q 11.078125 -9.1875 12.390625 -6.8125 
Q 13.71875 -4.4375 13.875 0 
z
" id="ArialMT-44"/>
    </defs>
    <g style="fill:#262626;" transform="translate(154.12915 29.61018)scale(0.2016 -0.2016)">
     <use xlink:href="#ArialMT-87"/>
     <use x="94.384766" xlink:href="#ArialMT-105"/>
     <use x="116.601562" xlink:href="#ArialMT-110"/>
     <use x="172.216797" xlink:href="#ArialMT-100"/>
     <use x="227.832031" xlink:href="#ArialMT-32"/>
     <use x="255.615234" xlink:href="#ArialMT-83"/>
     <use x="322.314453" xlink:href="#ArialMT-112"/>
     <use x="377.929688" xlink:href="#ArialMT-101"/>
     <use x="433.544922" xlink:href="#ArialMT-101"/>
     <use x="489.160156" xlink:href="#ArialMT-100"/>
     <use x="544.775391" xlink:href="#ArialMT-32"/>
     <use x="572.558594" xlink:href="#ArialMT-111"/>
     <use x="628.173828" xlink:href="#ArialMT-118"/>
     <use x="678.173828" xlink:href="#ArialMT-101"/>
     <use x="733.789062" xlink:href="#ArialMT-114"/>
     <use x="767.089844" xlink:href="#ArialMT-32"/>
     <use x="794.873047" xlink:href="#ArialMT-67"/>
     <use x="867.089844" xlink:href="#ArialMT-79"/>
     <use x="944.873047" xlink:href="#ArialMT-78"/>
     <use x="1017.089844" xlink:href="#ArialMT-85"/>
     <use x="1089.306641" xlink:href="#ArialMT-83"/>
     <use x="1156.005859" xlink:href="#ArialMT-44"/>
     <use x="1183.789062" xlink:href="#ArialMT-32"/>
     <use x="1211.572266" xlink:href="#ArialMT-83"/>
     <use x="1278.271484" xlink:href="#ArialMT-117"/>
     <use x="1333.886719" xlink:href="#ArialMT-109"/>
     <use x="1417.1875" xlink:href="#ArialMT-109"/>
     <use x="1500.488281" xlink:href="#ArialMT-101"/>
     <use x="1556.103516" xlink:href="#ArialMT-114"/>
    </g>
    <!-- 5 kPa PL (~20908 m, ~68596 ft.) -->
    <defs>
     <path d="M 6.640625 0 
L 6.640625 71.578125 
L 15.4375 71.578125 
L 15.4375 30.765625 
L 36.234375 51.859375 
L 47.609375 51.859375 
L 27.78125 32.625 
L 49.609375 0 
L 38.765625 0 
L 21.625 26.515625 
L 15.4375 20.5625 
L 15.4375 0 
z
" id="ArialMT-107"/>
     <path d="M 7.328125 0 
L 7.328125 71.578125 
L 16.796875 71.578125 
L 16.796875 8.453125 
L 52.046875 8.453125 
L 52.046875 0 
z
" id="ArialMT-76"/>
     <path d="M 23.390625 -21.046875 
Q 16.109375 -11.859375 11.078125 0.4375 
Q 6.0625 12.75 6.0625 25.921875 
Q 6.0625 37.546875 9.8125 48.1875 
Q 14.203125 60.546875 23.390625 72.796875 
L 29.6875 72.796875 
Q 23.78125 62.640625 21.875 58.296875 
Q 18.890625 51.5625 17.1875 44.234375 
Q 15.09375 35.109375 15.09375 25.875 
Q 15.09375 2.390625 29.6875 -21.046875 
z
" id="ArialMT-40"/>
     <path d="M 4.25 27.203125 
L 4.25 37.203125 
Q 9.421875 43.0625 17.828125 43.0625 
Q 20.75 43.0625 23.96875 42.203125 
Q 27.203125 41.359375 33.15625 38.8125 
Q 36.53125 37.40625 38.203125 36.96875 
Q 39.890625 36.53125 41.609375 36.53125 
Q 44.78125 36.53125 48.171875 38.421875 
Q 51.5625 40.328125 54.203125 43.21875 
L 54.203125 32.859375 
Q 51.078125 29.9375 47.875 28.609375 
Q 44.671875 27.296875 40.671875 27.296875 
Q 37.75 27.296875 35.078125 27.96875 
Q 32.421875 28.65625 26.625 31.25 
Q 20.84375 33.84375 17 33.84375 
Q 13.875 33.84375 11.109375 32.5 
Q 8.34375 31.15625 4.25 27.203125 
z
" id="ArialMT-126"/>
     <path d="M 5.46875 16.546875 
L 13.921875 17.328125 
Q 14.984375 11.375 18.015625 8.6875 
Q 21.046875 6 25.78125 6 
Q 29.828125 6 32.875 7.859375 
Q 35.9375 9.71875 37.890625 12.8125 
Q 39.84375 15.921875 41.15625 21.1875 
Q 42.484375 26.46875 42.484375 31.9375 
Q 42.484375 32.515625 42.4375 33.6875 
Q 39.796875 29.5 35.234375 26.875 
Q 30.671875 24.265625 25.34375 24.265625 
Q 16.453125 24.265625 10.296875 30.703125 
Q 4.15625 37.15625 4.15625 47.703125 
Q 4.15625 58.59375 10.578125 65.234375 
Q 17 71.875 26.65625 71.875 
Q 33.640625 71.875 39.421875 68.109375 
Q 45.21875 64.359375 48.21875 57.390625 
Q 51.21875 50.4375 51.21875 37.25 
Q 51.21875 23.53125 48.234375 15.40625 
Q 45.265625 7.28125 39.375 3.03125 
Q 33.5 -1.21875 25.59375 -1.21875 
Q 17.1875 -1.21875 11.859375 3.4375 
Q 6.546875 8.109375 5.46875 16.546875 
z
M 41.453125 48.140625 
Q 41.453125 55.71875 37.421875 60.15625 
Q 33.40625 64.59375 27.734375 64.59375 
Q 21.875 64.59375 17.53125 59.8125 
Q 13.1875 55.03125 13.1875 47.40625 
Q 13.1875 40.578125 17.3125 36.296875 
Q 21.4375 32.03125 27.484375 32.03125 
Q 33.59375 32.03125 37.515625 36.296875 
Q 41.453125 40.578125 41.453125 48.140625 
z
" id="ArialMT-57"/>
     <path d="M 8.6875 0 
L 8.6875 45.015625 
L 0.921875 45.015625 
L 0.921875 51.859375 
L 8.6875 51.859375 
L 8.6875 57.375 
Q 8.6875 62.59375 9.625 65.140625 
Q 10.890625 68.5625 14.078125 70.671875 
Q 17.28125 72.796875 23.046875 72.796875 
Q 26.765625 72.796875 31.25 71.921875 
L 29.9375 64.265625 
Q 27.203125 64.75 24.75 64.75 
Q 20.75 64.75 19.09375 63.03125 
Q 17.4375 61.328125 17.4375 56.640625 
L 17.4375 51.859375 
L 27.546875 51.859375 
L 27.546875 45.015625 
L 17.4375 45.015625 
L 17.4375 0 
z
" id="ArialMT-102"/>
     <path d="M 12.359375 -21.046875 
L 6.0625 -21.046875 
Q 20.65625 2.390625 20.65625 25.875 
Q 20.65625 35.0625 18.5625 44.09375 
Q 16.890625 51.421875 13.921875 58.15625 
Q 12.015625 62.546875 6.0625 72.796875 
L 12.359375 72.796875 
Q 21.53125 60.546875 25.921875 48.1875 
Q 29.6875 37.546875 29.6875 25.921875 
Q 29.6875 12.75 24.625 0.4375 
Q 19.578125 -11.859375 12.359375 -21.046875 
z
" id="ArialMT-41"/>
    </defs>
    <g style="fill:#262626;" transform="translate(168.094675 51.228)scale(0.2016 -0.2016)">
     <use xlink:href="#ArialMT-53"/>
     <use x="55.615234" xlink:href="#ArialMT-32"/>
     <use x="83.398438" xlink:href="#ArialMT-107"/>
     <use x="133.398438" xlink:href="#ArialMT-80"/>
     <use x="200.097656" xlink:href="#ArialMT-97"/>
     <use x="255.712891" xlink:href="#ArialMT-32"/>
     <use x="283.496094" xlink:href="#ArialMT-80"/>
     <use x="350.195312" xlink:href="#ArialMT-76"/>
     <use x="405.763672" xlink:href="#ArialMT-32"/>
     <use x="433.546875" xlink:href="#ArialMT-40"/>
     <use x="466.847656" xlink:href="#ArialMT-126"/>
     <use x="525.246094" xlink:href="#ArialMT-50"/>
     <use x="580.861328" xlink:href="#ArialMT-48"/>
     <use x="636.476562" xlink:href="#ArialMT-57"/>
     <use x="692.091797" xlink:href="#ArialMT-48"/>
     <use x="747.707031" xlink:href="#ArialMT-56"/>
     <use x="803.322266" xlink:href="#ArialMT-32"/>
     <use x="831.105469" xlink:href="#ArialMT-109"/>
     <use x="914.40625" xlink:href="#ArialMT-44"/>
     <use x="942.189453" xlink:href="#ArialMT-32"/>
     <use x="969.972656" xlink:href="#ArialMT-126"/>
     <use x="1028.371094" xlink:href="#ArialMT-54"/>
     <use x="1083.986328" xlink:href="#ArialMT-56"/>
     <use x="1139.601562" xlink:href="#ArialMT-53"/>
     <use x="1195.216797" xlink:href="#ArialMT-57"/>
     <use x="1250.832031" xlink:href="#ArialMT-54"/>
     <use x="1306.447266" xlink:href="#ArialMT-32"/>
     <use x="1334.230469" xlink:href="#ArialMT-102"/>
     <use x="1362.013672" xlink:href="#ArialMT-116"/>
     <use x="1389.796875" xlink:href="#ArialMT-46"/>
     <use x="1417.580078" xlink:href="#ArialMT-41"/>
    </g>
   </g>
   <g id="legend_1">
    <g id="line2d_34">
     <path d="M 496.645625 69.885812 
L 516.645625 69.885812 
" style="fill:none;stroke:#008fd5;stroke-width:4;"/>
    </g>
    <g id="line2d_35"/>
    <g id="text_20">
     <!-- Model -->
     <defs>
      <path d="M 7.421875 0 
L 7.421875 71.578125 
L 21.6875 71.578125 
L 38.625 20.90625 
Q 40.96875 13.8125 42.046875 10.296875 
Q 43.265625 14.203125 45.84375 21.78125 
L 62.984375 71.578125 
L 75.734375 71.578125 
L 75.734375 0 
L 66.609375 0 
L 66.609375 59.90625 
L 45.796875 0 
L 37.25 0 
L 16.546875 60.9375 
L 16.546875 0 
z
" id="ArialMT-77"/>
     </defs>
     <g style="fill:#262626;" transform="translate(524.645625 73.385812)scale(0.1 -0.1)">
      <use xlink:href="#ArialMT-77"/>
      <use x="83.300781" xlink:href="#ArialMT-111"/>
      <use x="138.916016" xlink:href="#ArialMT-100"/>
      <use x="194.53125" xlink:href="#ArialMT-101"/>
      <use x="250.146484" xlink:href="#ArialMT-108"/>
     </g>
    </g>
    <g id="patch_127">
     <path d="M 496.645625 87.531125 
L 516.645625 87.531125 
L 516.645625 80.531125 
L 496.645625 80.531125 
z
" style="fill:#fc4f30;"/>
    </g>
    <g id="text_21">
     <!-- Data -->
     <g style="fill:#262626;" transform="translate(524.645625 87.531125)scale(0.1 -0.1)">
      <use xlink:href="#ArialMT-68"/>
      <use x="72.216797" xlink:href="#ArialMT-97"/>
      <use x="127.832031" xlink:href="#ArialMT-116"/>
      <use x="155.615234" xlink:href="#ArialMT-97"/>
     </g>
    </g>
   </g>
  </g>
 </g>
 <defs>
  <clipPath id="p4655e228f0">
   <rect height="287.452" width="493.09" x="67.79" y="57.228"/>
  </clipPath>
 </defs>
</svg>
